<?xml version="1.0" encoding="UTF-8"?>
<svg version="1.1" xmlns="http://www.w3.org/2000/svg" width="944" height="264">
<path d="M0 0 C1.03869232 -0.00571014 2.07738464 -0.01142029 3.14755249 -0.01730347 C4.29708908 -0.01842133 5.44662567 -0.01953918 6.6309967 -0.02069092 C8.43591583 -0.02813828 8.43591583 -0.02813828 10.27729797 -0.03573608 C13.58980426 -0.04787439 16.90224714 -0.05531197 20.21476817 -0.05974674 C22.28644697 -0.06267611 24.35812021 -0.06678091 26.42979622 -0.07125092 C32.91713528 -0.08494063 39.40446166 -0.09459699 45.89181417 -0.09845281 C53.36846108 -0.10292112 60.84492402 -0.12040534 68.32151502 -0.1494534 C74.10508688 -0.17113854 79.88860729 -0.18116091 85.67221934 -0.18249393 C89.12332731 -0.18353816 92.57426271 -0.18936248 96.02532768 -0.20731354 C99.88613035 -0.22700198 103.74670775 -0.22247815 107.6075592 -0.21600342 C108.73887772 -0.2252182 109.87019623 -0.23443298 111.03579712 -0.243927 C121.59473186 -0.18866346 130.38513864 1.71064555 138.20155334 9.14044189 C146.59253795 18.15932331 147.66421699 27.56098502 147.63514709 39.53887939 C147.64038895 40.80962311 147.6456308 42.08036682 147.65103149 43.38961792 C147.6574321 46.06762074 147.65759634 48.7447642 147.64759827 51.42266846 C147.63612559 54.82396212 147.65631678 58.22421482 147.6855154 61.62537193 C147.70846742 64.90904435 147.70140191 68.19264573 147.69764709 71.47637939 C147.70888107 72.68192474 147.72011505 73.88747009 147.73168945 75.12954712 C147.63789126 86.64160148 144.91548504 95.61386055 136.82264709 103.97247314 C129.46581934 110.05747971 121.43579782 111.43591255 112.20155334 112.14044189 C120.60225613 123.20646753 129.01715195 134.25883351 137.59461975 145.18878174 C139.14068941 147.16485931 140.67286357 149.15090461 142.20155334 151.14044189 C142.69300842 151.76354248 143.1844635 152.38664307 143.69081116 153.02862549 C146.25454807 156.39590821 147.85894565 158.72010628 147.57655334 163.01544189 C147.54303772 163.77598877 147.50952209 164.53653564 147.47499084 165.32012939 C147.20155334 167.14044189 147.20155334 167.14044189 146.20155334 168.14044189 C119.178667 171.17275316 119.178667 171.17275316 112.30311584 165.88653564 C109.79212649 162.77014595 108.0007508 159.7100167 106.20155334 156.14044189 C104.86234768 154.30133628 103.48609827 152.48870905 102.07655334 150.70294189 C101.35338928 149.72712158 100.63022522 148.75130127 99.88514709 147.74591064 C96.34430705 142.97128952 92.73912269 138.24545699 89.13905334 133.51544189 C88.47824768 132.64476074 87.81744202 131.77407959 87.13661194 130.87701416 C83.08186289 125.55057121 78.93868799 120.31769011 74.67250061 115.1585083 C73.20155334 113.14044189 73.20155334 113.14044189 73.20155334 111.14044189 C57.03155334 111.14044189 40.86155334 111.14044189 24.20155334 111.14044189 C24.21315491 115.17134033 24.22475647 119.20223877 24.23670959 123.35528564 C24.24313662 126.56122049 24.24856082 129.76715352 24.25330353 132.97309113 C24.25859304 136.36181421 24.26566615 139.75051245 24.2769928 143.13922119 C24.28989601 147.02373967 24.29478258 150.90824786 24.29920959 154.79278564 C24.30437088 156.012556 24.30953217 157.23232635 24.31484985 158.48905945 C24.31496315 160.17068932 24.31496315 160.17068932 24.31507874 161.8862915 C24.31729935 162.87890488 24.31951996 163.87151825 24.32180786 164.89421082 C24.20155334 167.14044189 24.20155334 167.14044189 23.20155334 168.14044189 C21.12893258 168.22811302 19.0533504 168.24740063 16.97889709 168.23809814 C15.7188385 168.23487549 14.45877991 168.23165283 13.16053772 168.22833252 C11.82004226 168.21997593 10.47954747 168.21151097 9.13905334 168.20294189 C7.79465393 168.1979285 6.45025275 168.19336531 5.10585022 168.18927002 C1.80437394 168.17743677 -1.49701469 168.1609516 -4.79844666 168.14044189 C-5.62667426 163.80911199 -5.92402269 159.7205928 -5.9254303 155.3134613 C-5.92699029 154.65158839 -5.92855028 153.98971548 -5.93015754 153.30778581 C-5.93412643 151.10378808 -5.93099399 148.89985998 -5.92784119 146.69586182 C-5.92919699 145.11041219 -5.93097793 143.52496288 -5.93315125 141.93951416 C-5.93770244 137.64447687 -5.93594602 133.34946365 -5.93277216 129.05442595 C-5.93023883 124.56123143 -5.93258861 120.06803896 -5.93415833 115.57484436 C-5.93597623 108.03526438 -5.93358265 100.49569421 -5.92881775 92.95611572 C-5.92336599 84.22867843 -5.92514592 75.50126447 -5.93064415 66.77382773 C-5.93517431 59.2841545 -5.93582661 51.79448831 -5.93320549 44.30481416 C-5.93164344 39.82964686 -5.93144718 35.35449056 -5.93474197 30.87932396 C-5.9376196 26.67767868 -5.93564704 22.47606368 -5.92984772 18.27442169 C-5.92851995 16.7283947 -5.92891451 15.18236519 -5.93111038 13.63633919 C-5.93382101 11.53502589 -5.930442 9.4338112 -5.9254303 7.33250427 C-5.92505327 6.15394961 -5.92467625 4.97539495 -5.9242878 3.76112652 C-5.71042106 -0.69272112 -3.99650264 0.01309447 0 0 Z M24.20155334 33.14044189 C24.10859519 34.58333976 24.08408822 36.03073974 24.08802795 37.47662354 C24.08810349 38.39750259 24.08817902 39.31838165 24.08825684 40.26716614 C24.09341812 41.2681987 24.09857941 42.26923126 24.10389709 43.30059814 C24.10531204 44.32020126 24.10672699 45.33980438 24.10818481 46.39030457 C24.11380238 49.66121297 24.12635784 52.93205403 24.13905334 56.20294189 C24.14406608 58.41452945 24.14862938 60.62611808 24.15272522 62.83770752 C24.16377751 68.27197546 24.18053271 73.70620387 24.20155334 79.14044189 C36.30997279 79.16356367 48.41838702 79.18135614 60.526824 79.19225407 C66.14863296 79.19748326 71.77042687 79.20458155 77.39222717 79.21588135 C82.81273612 79.22670895 88.23323054 79.23271846 93.65374947 79.23531914 C95.72670279 79.23717362 97.79965528 79.24079466 99.87260246 79.24617195 C102.76539228 79.2533807 105.6581213 79.25443291 108.55091858 79.25396729 C109.41694199 79.25756256 110.28296539 79.26115784 111.17523193 79.26486206 C114.99670822 79.63391227 114.99670822 79.63391227 118.20155334 78.14044189 C118.29442595 76.72819144 118.31902106 75.31135255 118.31507874 73.89605713 C118.3150032 72.99519882 118.31492767 72.09434052 118.31484985 71.16618347 C118.30968857 70.18702469 118.30452728 69.20786591 118.29920959 68.19903564 C118.29779465 67.20162857 118.2963797 66.2042215 118.29492188 65.17658997 C118.28930449 61.97701066 118.27674905 58.77750021 118.26405334 55.57794189 C118.25904058 53.41453144 118.25447729 51.2511199 118.25038147 49.08770752 C118.23932941 43.77192864 118.22257438 38.45619019 118.20155334 33.14044189 C114.91025687 31.49479366 111.25413867 32.00235275 107.63685608 32.01104736 C106.7505954 32.00929504 105.86433472 32.00754272 104.95121765 32.0057373 C102.01250773 32.00132461 99.07385766 32.0042545 96.13514709 32.00762939 C94.10015857 32.00695625 92.06517013 32.00598613 90.03018188 32.00473022 C85.762184 32.00325409 81.49420701 32.00540534 77.22621155 32.0100708 C71.74240425 32.01577165 66.25864586 32.01248629 60.77484035 32.00649834 C56.57226184 32.00289353 52.36969502 32.00403087 48.16711617 32.00662613 C46.14440467 32.00729544 44.12169213 32.00646685 42.09898186 32.00414658 C39.27824444 32.00162099 36.45758747 32.00545915 33.63685608 32.01104736 C32.37058632 32.00801102 32.37058632 32.00801102 31.07873535 32.00491333 C27.33570926 31.65700104 27.33570926 31.65700104 24.20155334 33.14044189 Z " fill="#000101" transform="translate(697.7984466552734,3.85955810546875)"/>
<path d="M0 0 C1.24652596 -0.01073296 1.24652596 -0.01073296 2.51823425 -0.02168274 C3.42164551 -0.02437164 4.32505676 -0.02706055 5.25584412 -0.02983093 C6.21411606 -0.03640213 7.172388 -0.04297333 8.15969849 -0.04974365 C11.33164045 -0.06945519 14.50353503 -0.08113648 17.67552185 -0.09111023 C19.30430928 -0.09722352 19.30430928 -0.09722352 20.96600151 -0.10346031 C26.71691065 -0.12431506 32.46779598 -0.1386176 38.21873474 -0.147995 C44.14108558 -0.15903905 50.06305859 -0.19341786 55.98527622 -0.23316669 C60.55369739 -0.25939362 65.12202951 -0.26769239 69.69051933 -0.27127647 C71.87245666 -0.27612918 74.05439037 -0.28770531 76.23625374 -0.30631447 C91.36592373 -0.42730231 103.22795511 -0.32839764 114.6950531 10.70185852 C120.00909764 16.8851148 121.92394991 24.00473467 121.91687012 32.01905823 C121.91893211 33.81952103 121.91893211 33.81952103 121.92103577 35.65635681 C121.91744049 36.96978058 121.91384521 38.28320435 121.91014099 39.63642883 C121.90985886 41.03601581 121.91001736 42.43560293 121.9105835 43.83518982 C121.91087047 47.63236548 121.90498987 51.42950957 121.89800954 55.22667789 C121.89175938 59.19584048 121.89117088 63.16500378 121.88998413 67.13417053 C121.88687573 74.64931256 121.87866893 82.16444005 121.86863464 89.67957568 C121.85745829 98.23573097 121.85195921 106.79188696 121.84693921 115.34804773 C121.83648593 132.94776374 121.81889596 150.54746621 121.7966156 168.14717102 C117.82730571 168.17182983 113.85802526 168.19001125 109.88865662 168.20210266 C108.53741174 168.20714159 107.18617234 168.21397279 105.83494568 168.22261047 C103.89641126 168.23469521 101.9578376 168.2398693 100.01927185 168.24482727 C98.85146179 168.25006409 97.68365173 168.2553009 96.48045349 168.26069641 C93.7966156 168.14717102 93.7966156 168.14717102 92.7966156 167.14717102 C92.7030237 165.42851693 92.67916949 163.70601358 92.68309021 161.9848175 C92.68321106 160.86828796 92.68333191 159.75175842 92.68345642 158.60139465 C92.68857239 157.41896179 92.69368835 156.23652893 92.69895935 155.01826477 C92.69996643 153.93807068 92.70097351 152.85787659 92.70201111 151.74494934 C92.70726186 147.69151251 92.72122297 143.63809075 92.7341156 139.58467102 C92.7547406 130.53029602 92.7753656 121.47592102 92.7966156 112.14717102 C61.7766156 112.14717102 30.7566156 112.14717102 -1.2033844 112.14717102 C-1.2033844 130.62717102 -1.2033844 149.10717102 -1.2033844 168.14717102 C-10.4433844 168.14717102 -19.6833844 168.14717102 -29.2033844 168.14717102 C-30.92456765 166.42598777 -30.34067445 164.14164761 -30.35055542 161.79272461 C-30.35771072 160.6307103 -30.36486603 159.46869598 -30.37223816 158.27146912 C-30.37492706 156.98481354 -30.37761597 155.69815796 -30.38038635 154.37251282 C-30.38664873 153.01254095 -30.39329533 151.6525708 -30.40029907 150.29260254 C-30.42138942 145.81054384 -30.4317141 141.32848464 -30.44166565 136.84638977 C-30.445713 135.30228469 -30.44982991 133.7581798 -30.45401573 132.21407509 C-30.47308756 124.95145995 -30.48730776 117.68885503 -30.4956277 110.42621964 C-30.50537267 102.05812465 -30.53161156 93.69029611 -30.57212859 85.32229489 C-30.60239154 78.8482532 -30.61710665 72.37428735 -30.62040871 65.90017635 C-30.62274998 62.03759603 -30.63158708 58.17529968 -30.65686989 54.31279564 C-30.6803308 50.6691841 -30.68431258 47.0260397 -30.67410851 43.3823719 C-30.67338503 41.42610263 -30.69235469 39.46985614 -30.71217346 37.51368713 C-30.64627037 26.19073275 -28.56226365 16.3840483 -20.4924469 8.05732727 C-14.62049806 3.15735631 -7.68136626 0.04562612 0 0 Z M-1.2033844 33.14717102 C-1.2033844 48.65717102 -1.2033844 64.16717102 -1.2033844 80.14717102 C29.8166156 80.14717102 60.8366156 80.14717102 92.7966156 80.14717102 C92.7966156 64.63717102 92.7966156 49.12717102 92.7966156 33.14717102 C90.94314192 31.29369734 88.31136234 32.020628 85.84486389 32.01164246 C84.98976227 32.01366669 84.13466064 32.01569092 83.25364685 32.01777649 C82.35777863 32.01602417 81.4619104 32.01427185 80.53889465 32.01246643 C77.56228223 32.00804655 74.58572868 32.01098638 71.6091156 32.01435852 C69.55027759 32.01368552 67.49143966 32.01271553 65.43260193 32.01145935 C61.11154933 32.00998219 56.79051737 32.01213751 52.46946716 32.01679993 C46.91725014 32.02249722 41.36508146 32.01921831 35.81286621 32.01322746 C31.55967339 32.00962233 27.30649211 32.01076021 23.05329895 32.01335526 C21.00546768 32.01402466 18.95763537 32.01319564 16.9098053 32.0108757 C14.05303652 32.00834996 11.19634717 32.01218866 8.33958435 32.01777649 C7.05693192 32.01474014 7.05693192 32.01474014 5.74836731 32.01164246 C1.96597907 31.65716267 1.96597907 31.65716267 -1.2033844 33.14717102 Z " fill="#000101" transform="translate(36.20338439941406,3.8528289794921875)"/>
<path d="M0 0 C4.27618955 -0.18360964 8.55023893 -0.31672415 12.82920837 -0.40512085 C14.28149923 -0.44199847 15.73352021 -0.49217218 17.18486023 -0.55636597 C29.22015815 -1.07499731 29.22015815 -1.07499731 33.62700176 1.58666897 C36.82252067 4.66598302 39.35735074 8.06506858 41.30078125 12.06640625 C44.06404883 17.30944947 47.52953208 21.71925108 51.25 26.3125 C52.43466293 27.82525552 53.61576773 29.34080551 54.79296875 30.859375 C55.3451709 31.57029297 55.89737305 32.28121094 56.46630859 33.01367188 C59.2339372 36.59810778 61.94040484 40.22681495 64.64453125 43.859375 C68.1897816 48.58637547 71.79218658 53.26951952 75.39672852 57.95141602 C78.68934536 62.24047603 81.8817067 66.58241782 85 71 C90.5752335 64.35477219 95.88537531 57.56107854 101.06567383 50.60717773 C107.31936003 42.21404694 113.67658932 33.90031952 120.02929688 25.58203125 C121.93315607 23.08757946 123.83414346 20.59096589 125.734375 18.09375 C126.88536021 16.58329031 128.03639897 15.07287143 129.1875 13.5625 C129.70368896 12.88324463 130.21987793 12.20398926 130.75170898 11.50415039 C131.23969971 10.86469482 131.72769043 10.22523926 132.23046875 9.56640625 C132.64707764 9.01927979 133.06368652 8.47215332 133.49291992 7.90844727 C133.99025635 7.27865967 134.48759277 6.64887207 135 6 C135.70614944 4.98272324 136.41229889 3.96544647 137.1398468 2.91734314 C139.34052744 0.29577962 139.83953454 0.03202193 143.41333008 -0.68115234 C144.68587646 -0.64973145 145.95842285 -0.61831055 147.26953125 -0.5859375 C147.95053391 -0.57744781 148.63153656 -0.56895813 149.33317566 -0.56021118 C151.49460485 -0.52679302 153.6522119 -0.45155986 155.8125 -0.375 C157.28314898 -0.34488432 158.75385684 -0.31751129 160.22460938 -0.29296875 C163.81763468 -0.22704737 167.40844394 -0.12361723 171 0 C171.02332684 21.75682281 171.04097812 43.51364357 171.05181217 65.27047634 C171.05697559 75.37180943 171.06401915 85.47313477 171.07543945 95.57446289 C171.0853849 104.37544464 171.09185309 113.17642078 171.09408849 121.97740799 C171.09539584 126.64046267 171.09848318 131.30350128 171.10573006 135.96655083 C171.11248809 140.35032366 171.11461741 144.73407371 171.11310768 149.11785126 C171.11338411 150.73160234 171.11539052 152.34535413 171.11920547 153.95910072 C171.12413934 156.1526889 171.12299944 158.3461897 171.12025452 160.53977966 C171.12163721 162.38567011 171.12163721 162.38567011 171.12304783 164.26885128 C171 167 171 167 170 168 C160.76 168 151.52 168 142 168 C141.67 128.73 141.34 89.46 141 49 C138.03 52.96 135.06 56.92 132 61 C129.33698563 64.50288813 126.67125326 68.0034225 124 71.5 C119.68750977 77.15133197 115.38059766 82.80567715 111.125 88.5 C107.72666086 93.04616527 104.29318211 97.56418974 100.8125 102.04760742 C98.59470818 104.90664162 96.41577966 107.78619344 94.28515625 110.7109375 C93.83970459 111.31365479 93.39425293 111.91637207 92.93530273 112.53735352 C92.07938371 113.69691887 91.23333648 114.86385432 90.39868164 116.03881836 C89.2265625 117.61328125 89.2265625 117.61328125 87 120 C83 120 83 120 81.55883789 118.70922852 C81.11789795 118.10522217 80.67695801 117.50121582 80.22265625 116.87890625 C79.71605469 116.19957031 79.20945312 115.52023438 78.6875 114.8203125 C78.15125 114.07523437 77.615 113.33015625 77.0625 112.5625 C75.89747155 110.99063622 74.73209748 109.41902857 73.56640625 107.84765625 C72.97359863 107.0395752 72.38079102 106.23149414 71.77001953 105.39892578 C69.06187802 101.72855357 66.28012988 98.11594448 63.5 94.5 C62.41500822 93.08100158 61.33037382 91.66172983 60.24609375 90.2421875 C58.09699198 87.43137671 55.94301101 84.62440835 53.78515625 81.8203125 C45.71273114 71.31821576 37.82210805 60.6896833 30 50 C29.03919836 52.88240491 28.86465873 54.72970602 28.84178162 57.72660828 C28.82709839 59.18423584 28.82709839 59.18423584 28.81211853 60.67131042 C28.80636307 61.73585953 28.8006076 62.80040863 28.79467773 63.8972168 C28.77982834 65.58036484 28.77982834 65.58036484 28.76467896 67.29751587 C28.73303507 71.01472854 28.70829501 74.73195399 28.68359375 78.44921875 C28.66302673 81.0232629 28.64203032 83.59730366 28.62062073 86.17134094 C28.57102405 92.25922358 28.52576545 98.34712438 28.48259836 104.43505555 C28.43321177 111.36610046 28.37829892 118.29709812 28.32291877 125.22809732 C28.20912426 139.48535383 28.1022797 153.74265647 28 168 C23.52084672 168.02886338 19.04171709 168.04675187 14.5625 168.0625 C13.28310547 168.07087891 12.00371094 168.07925781 10.68554688 168.08789062 C9.47060547 168.09111328 8.25566406 168.09433594 7.00390625 168.09765625 C5.31503296 168.10551147 5.31503296 168.10551147 3.59204102 168.11352539 C1 168 1 168 0 167 C-0.096937 164.84840274 -0.12186783 162.69355889 -0.12025452 160.53977966 C-0.12153615 159.51556816 -0.12153615 159.51556816 -0.12284368 158.47066551 C-0.12450043 156.16588309 -0.11897397 153.86117228 -0.11352539 151.55639648 C-0.11324353 149.91094972 -0.11340122 148.26550284 -0.1139679 146.62005615 C-0.11425593 142.13884241 -0.10835821 137.65765519 -0.10139394 133.17644763 C-0.09516142 128.49857895 -0.09455668 123.82070972 -0.09336853 119.14283752 C-0.09025491 110.27824832 -0.08204111 101.41367138 -0.07201904 92.54908758 C-0.06085885 82.45977798 -0.05534769 72.3704678 -0.05032361 62.28115356 C-0.03985852 41.52076218 -0.02225849 20.76038186 0 0 Z " fill="#000101" transform="translate(453,4)"/>
<path d="M0 0 C9.57 0 19.14 0 29 0 C29 44.88 29 89.76 29 136 C69.92 136 110.84 136 153 136 C153 146.56 153 157.12 153 168 C133.19893143 168.02254575 113.39787321 168.04097843 93.59679508 168.05181217 C84.40347396 168.05697545 75.21016136 168.06401875 66.0168457 168.07543945 C58.00692964 168.08538532 49.99701975 168.09185319 41.98709768 168.09408849 C37.74322747 168.09539577 33.4993749 168.09848266 29.25551033 168.10573006 C25.2657093 168.11248874 21.2759333 168.11461727 17.28612709 168.11310768 C15.81750605 168.11338408 14.34888421 168.1153901 12.8802681 168.11920547 C10.88377224 168.12414028 8.88726313 168.12239813 6.89076233 168.12025452 C5.77078385 168.12117631 4.65080538 168.1220981 3.49688816 168.12304783 C1 168 1 168 0 167 C-0.096937 164.84840274 -0.12186783 162.69355889 -0.12025452 160.53977966 C-0.12153615 159.51556816 -0.12153615 159.51556816 -0.12284368 158.47066551 C-0.12450043 156.16588309 -0.11897397 153.86117228 -0.11352539 151.55639648 C-0.11324353 149.91094972 -0.11340122 148.26550284 -0.1139679 146.62005615 C-0.11425593 142.13884241 -0.10835821 137.65765519 -0.10139394 133.17644763 C-0.09516142 128.49857895 -0.09455668 123.82070972 -0.09336853 119.14283752 C-0.09025491 110.27824832 -0.08204111 101.41367138 -0.07201904 92.54908758 C-0.06085885 82.45977798 -0.05534769 72.3704678 -0.05032361 62.28115356 C-0.03985852 41.520762 -0.02205811 20.7603822 0 0 Z " fill="#010101" transform="translate(181,4)"/>
<path d="M0 0 C9.57 0 19.14 0 29 0 C29.02311684 21.75682316 29.04097812 43.51364338 29.05181217 65.27047634 C29.05697559 75.37180943 29.06401915 85.47313477 29.07543945 95.57446289 C29.0853849 104.37544464 29.09185309 113.17642078 29.09408849 121.97740799 C29.09539584 126.64046267 29.09848318 131.30350128 29.10573006 135.96655083 C29.11248809 140.35032366 29.11461741 144.73407371 29.11310768 149.11785126 C29.11338411 150.73160234 29.11539052 152.34535413 29.11920547 153.95910072 C29.12413934 156.1526889 29.12299944 158.3461897 29.12025452 160.53977966 C29.12117631 161.7703733 29.1220981 163.00096693 29.12304783 164.26885128 C29 167 29 167 28 168 C26.01242972 168.09983058 24.0213248 168.13080753 22.03125 168.1328125 C20.82082031 168.13410156 19.61039063 168.13539063 18.36328125 168.13671875 C17.08839844 168.13285156 15.81351563 168.12898437 14.5 168.125 C12.58767578 168.13080078 12.58767578 168.13080078 10.63671875 168.13671875 C8.82107422 168.13478516 8.82107422 168.13478516 6.96875 168.1328125 C5.84919922 168.13168457 4.72964844 168.13055664 3.57617188 168.12939453 C1 168 1 168 0 167 C-0.096937 164.84840274 -0.12186783 162.69355889 -0.12025452 160.53977966 C-0.12153615 159.51556816 -0.12153615 159.51556816 -0.12284368 158.47066551 C-0.12450043 156.16588309 -0.11897397 153.86117228 -0.11352539 151.55639648 C-0.11324353 149.91094972 -0.11340122 148.26550284 -0.1139679 146.62005615 C-0.11425593 142.13884241 -0.10835821 137.65765519 -0.10139394 133.17644763 C-0.09516142 128.49857895 -0.09455668 123.82070972 -0.09336853 119.14283752 C-0.09025491 110.27824832 -0.08204111 101.41367138 -0.07201904 92.54908758 C-0.06085885 82.45977798 -0.05534769 72.3704678 -0.05032361 62.28115356 C-0.03985852 41.520762 -0.02205811 20.7603822 0 0 Z " fill="#000101" transform="translate(647,4)"/>
<path d="M0 0 C28.71 0 57.42 0 87 0 C87 10.56 87 21.12 87 32 C58.29 32 29.58 32 0 32 C0 21.44 0 10.88 0 0 Z " fill="#010101" transform="translate(345,87)"/>
<path d="M0 0 C1.24330078 0.05736328 2.48660156 0.11472656 3.76757812 0.17382812 C12.8875558 0.6375558 12.8875558 0.6375558 14.0625 1.8125 C14.1875 4.8125 14.1875 4.8125 14.0625 7.8125 C13.0625 8.8125 13.0625 8.8125 10.5 8.875 C9.695625 8.854375 8.89125 8.83375 8.0625 8.8125 C8.5575 9.5859375 8.5575 9.5859375 9.0625 10.375 C10.68375471 14.32680835 10.71578322 17.82666748 9.375 21.90234375 C6.93482174 27.36224261 3.84057809 30.30126876 -1.8125 32.5625 C-6.97373687 33.16970434 -11.89678665 33.07267834 -16.9375 31.8125 C-16.9375 33.1325 -16.9375 34.4525 -16.9375 35.8125 C-12.73715869 37.21261377 -8.48810517 37.12740957 -4.09375 37.2421875 C2.38820805 37.53460666 7.09513822 39.01257326 12 43.5 C14.44692385 47.42990801 14.97691691 50.35256092 14.0625 54.8125 C12.57631053 59.12244946 10.48074218 61.84498102 6.5625 64.1875 C-1.56514049 67.96104737 -11.38819142 68.15215902 -20 65.6875 C-24.38665777 63.93611052 -26.5161715 61.87408329 -28.9375 57.8125 C-29.64823311 52.74852659 -28.90628561 49.92312623 -25.9375 45.8125 C-25.2775 44.8225 -24.6175 43.8325 -23.9375 42.8125 C-24.4325 42.296875 -24.9275 41.78125 -25.4375 41.25 C-27.50724927 37.88665744 -27.3406613 35.70972593 -26.9375 31.8125 C-26.40125 30.760625 -25.865 29.70875 -25.3125 28.625 C-24.85875 27.696875 -24.405 26.76875 -23.9375 25.8125 C-24.59606674 24.47514736 -25.26420346 23.14249774 -25.9375 21.8125 C-26.59275744 16.34186231 -26.62087038 11.40703088 -24.4375 6.3125 C-17.06248227 -1.06251773 -9.8570116 -0.62161334 0 0 Z M-16.9375 12.8125 C-17.7253128 17.2242517 -17.46725133 19.03442774 -14.9375 22.75 C-10.76832591 25.61630719 -8.92652441 25.60440864 -3.9375 24.8125 C-1.2891809 22.69384472 -0.19942331 21.19032575 0.4375 17.83984375 C0.63818891 14.48457596 0.29277695 12.19629492 -1.4375 9.3125 C-7.63312167 5.595127 -12.9906018 7.01549327 -16.9375 12.8125 Z M-17.3125 47.640625 C-19.17448283 49.78042074 -19.17448283 49.78042074 -19.4375 52.875 C-19.21792986 55.83316815 -19.21792986 55.83316815 -17.33984375 57.46875 C-14.11812256 59.27081844 -11.67620584 59.24607662 -8 59.25 C-6.79472656 59.26933594 -5.58945312 59.28867188 -4.34765625 59.30859375 C-0.36526878 58.72925445 1.29328979 57.69061174 4.0625 54.8125 C4.6463196 51.7274255 4.6463196 51.7274255 4.0625 48.8125 C0.5138695 45.2638695 -3.58162341 45.60580465 -8.4375 45.5 C-10.12359375 45.44392578 -10.12359375 45.44392578 -11.84375 45.38671875 C-15.01990549 45.56312825 -15.01990549 45.56312825 -17.3125 47.640625 Z " fill="#030303" transform="translate(568.9375,196.1875)"/>
<path d="M0 0 C4.01855839 2.98965214 6.06062466 6.53343648 7.6171875 11.203125 C7.84765625 14.28125 7.84765625 14.28125 7.8046875 17.453125 C7.79824219 18.51015625 7.79179688 19.5671875 7.78515625 20.65625 C7.6171875 23.203125 7.6171875 23.203125 6.6171875 24.203125 C4.32567333 24.29103475 2.03146226 24.31006538 -0.26171875 24.30078125 C-1.29171242 24.29865883 -1.29171242 24.29865883 -2.34251404 24.29649353 C-4.54349051 24.29087979 -6.74436659 24.27832507 -8.9453125 24.265625 C-10.43424333 24.26061176 -11.92317574 24.25604855 -13.41210938 24.25195312 C-17.06904325 24.24090593 -20.72591808 24.22363213 -24.3828125 24.203125 C-23.78258479 25.99442076 -23.1694388 27.78139178 -22.55078125 29.56640625 C-22.21071045 30.56196533 -21.87063965 31.55752441 -21.52026367 32.58325195 C-20.52199465 35.43238817 -20.52199465 35.43238817 -17.6953125 37.390625 C-9.64167465 39.36604561 -3.11010389 37.91332323 4.6171875 35.203125 C5.6171875 36.203125 5.6171875 36.203125 5.6796875 39.765625 C5.6590625 40.9 5.6384375 42.034375 5.6171875 43.203125 C-2.42416606 47.50431411 -10.71922236 48.41166298 -19.73046875 46.77734375 C-25.10054661 45.09078751 -28.42701361 41.93608647 -31.3828125 37.203125 C-35.38631174 29.19612653 -35.44154931 20.51909262 -33.2578125 11.953125 C-31.13004905 5.6990913 -27.84757156 1.73127562 -22.2578125 -1.734375 C-15.00382003 -4.30785348 -6.63443868 -3.90908835 0 0 Z M-21.3828125 8.203125 C-22.3728125 11.173125 -23.3628125 14.143125 -24.3828125 17.203125 C-17.1228125 17.203125 -9.8628125 17.203125 -2.3828125 17.203125 C-2.59469747 9.70363572 -2.59469747 9.70363572 -5.4453125 6.703125 C-10.81976431 3.95872407 -16.81758271 3.89876548 -21.3828125 8.203125 Z " fill="#030303" transform="translate(800.3828125,198.796875)"/>
<path d="M0 0 C3.83870882 2.69747106 4.65951479 5.53862878 5.60083008 10.04443359 C6.37362047 15.76639105 6.25553756 21.53273154 6.20581055 27.29589844 C6.18730976 29.52290042 6.185303 31.74949093 6.18554688 33.9765625 C6.14780347 44.85219653 6.14780347 44.85219653 5 46 C2.32941149 46.14115161 -0.32432238 46.04247107 -3 46 C-3.33 45.01 -3.66 44.02 -4 43 C-5.134375 43.66 -6.26875 44.32 -7.4375 45 C-12.78236012 47.6394371 -17.53770292 48.1279609 -23.2421875 46.26953125 C-26.36327374 44.86904383 -28.61402402 43.39803773 -31 40.9375 C-32.79213087 35.67311558 -33.42120113 29.98236904 -30.96875 24.8359375 C-27.30789978 20.05649416 -22.87168365 17.93256152 -17 17 C-12.65256127 16.78458637 -8.34792148 16.8185566 -4 17 C-4.25554054 15.53890937 -4.53000372 14.08111904 -4.8125 12.625 C-4.96332031 11.81289062 -5.11414063 11.00078125 -5.26953125 10.1640625 C-5.87544942 7.64179359 -5.87544942 7.64179359 -9 6 C-13.51851312 5.32572576 -17.6144389 5.58541158 -21.75 7.5625 C-25.20076969 9.08880198 -26.49458067 9.16847311 -30 8 C-30 6.02 -30 4.04 -30 2 C-20.62242331 -3.59047841 -9.98075452 -5.8221068 0 0 Z M-20.9375 27.1875 C-22.69908631 30.192559 -22.42295289 32.61637691 -22 36 C-19.76480615 38.77164037 -18.20247867 38.96943718 -14.6875 39.5 C-10.73276562 38.96376483 -8.44609842 38.19049432 -5.3125 35.77734375 C-2.74173141 32.29609461 -3.49779152 28.10535503 -4 24 C-10.08197456 23.78659738 -15.56545411 23.89495575 -20.9375 27.1875 Z " fill="#020202" transform="translate(526,199)"/>
<path d="M0 0 C2.79656139 2.35499907 3.83771178 3.51313533 5 7 C5.085409 9.94964113 5.11582927 12.87503019 5.09765625 15.82421875 C5.0962413 16.68561966 5.09482635 17.54702057 5.09336853 18.43452454 C5.0877714 21.18555169 5.07521946 23.93649744 5.0625 26.6875 C5.05748463 28.5527332 5.05292179 30.41796767 5.04882812 32.28320312 C5.03780292 36.85550011 5.02054027 41.42773625 5 46 C2.36 46 -0.28 46 -3 46 C-3.33 45.01 -3.66 44.02 -4 43 C-5.134375 43.66 -6.26875 44.32 -7.4375 45 C-12.04847536 47.27702487 -15.9242397 47.8842788 -21 47 C-24.80935898 45.69924327 -27.90497922 43.95372778 -30.9375 41.3125 C-32.95667598 36.91782287 -33.66329896 32.49945107 -32.41015625 27.77734375 C-30.08542426 22.43943983 -27.27656099 20.31428113 -22 18 C-18.02294406 16.97191751 -14.28529948 16.89610809 -10.1875 16.9375 C-9.02605469 16.94652344 -7.86460937 16.95554688 -6.66796875 16.96484375 C-5.78753906 16.97644531 -4.90710938 16.98804688 -4 17 C-4.42218816 15.3501725 -4.86324425 13.70516335 -5.3125 12.0625 C-5.55613281 11.14597656 -5.79976562 10.22945312 -6.05078125 9.28515625 C-6.36402344 8.53105469 -6.67726563 7.77695313 -7 7 C-12.24046631 5.2531779 -17.21136899 5.17447799 -22.25 7.5 C-23.1575 7.995 -24.065 8.49 -25 9 C-27.875 9.1875 -27.875 9.1875 -30 9 C-30 6.69 -30 4.38 -30 2 C-20.62242331 -3.59047841 -9.98075452 -5.8221068 0 0 Z M-22.0625 27.75 C-23.37272812 30.89454748 -22.96243134 32.76898051 -22 36 C-21.06402685 38.01951062 -21.06402685 38.01951062 -19 39 C-14.02403681 39.74639448 -11.10676519 39.56745014 -7 36.5625 C-4.88197361 34.55974035 -4.08768132 33.48580189 -3.56640625 30.59765625 C-3.56286234 28.35436192 -3.68917598 26.22017154 -4 24 C-13.64243858 23.62635643 -13.64243858 23.62635643 -22.0625 27.75 Z " fill="#030303" transform="translate(655,199)"/>
<path d="M0 0 C3.74595352 1.11721421 4.5154116 1.81465358 6.49829102 5.01879883 C8.82612387 9.48915644 10.53248262 14.229441 12.3125 18.9375 C12.72371094 20.00742187 13.13492188 21.07734375 13.55859375 22.1796875 C14.56647155 24.80485758 15.56753867 27.43241337 16.5625 30.0625 C16.81418945 29.46824219 17.06587891 28.87398437 17.32519531 28.26171875 C18.48499716 25.52752045 19.64872158 22.79500796 20.8125 20.0625 C21.20824219 19.12792969 21.60398437 18.19335938 22.01171875 17.23046875 C23.17678185 14.49925526 24.36219934 11.77839814 25.5625 9.0625 C25.91368896 8.2595752 26.26487793 7.45665039 26.62670898 6.62939453 C27.50725175 4.72527667 28.52461821 2.88563515 29.5625 1.0625 C33.125 -0.0625 33.125 -0.0625 36.5625 0.0625 C37.5525 0.7225 38.5425 1.3825 39.5625 2.0625 C39.84147038 5.10155746 39.93417364 7.93407297 39.890625 10.97265625 C39.88875183 11.85529648 39.88687866 12.73793671 39.88494873 13.64732361 C39.87822096 15.51435113 39.86429213 17.38136438 39.84375 19.24829102 C39.81258874 22.11683137 39.80278019 24.98482281 39.796875 27.85351562 C39.78770566 29.66406925 39.77733011 31.47461725 39.765625 33.28515625 C39.75925018 34.58042992 39.75925018 34.58042992 39.75274658 35.90187073 C39.67964689 41.94535311 39.67964689 41.94535311 38.5625 43.0625 C36.0625 43.1875 36.0625 43.1875 33.5625 43.0625 C31.73030354 41.23030354 32.32348672 38.30536259 32.24609375 35.83984375 C32.20419922 34.57978516 32.16230469 33.31972656 32.11914062 32.02148438 C32.07932404 30.68099264 32.03961186 29.3404978 32 28 C31.95681958 26.65558477 31.91320544 25.3111834 31.86914062 23.96679688 C31.76264642 20.6654766 31.6606354 17.36407764 31.5625 14.0625 C31.23975098 14.86993652 30.91700195 15.67737305 30.58447266 16.50927734 C29.38462248 19.50394115 28.18020548 22.49671456 26.97265625 25.48828125 C26.45095908 26.78343989 25.93108894 28.07933601 25.41308594 29.37597656 C24.6682231 31.2395606 23.91623796 33.10029294 23.1640625 34.9609375 C22.71369629 36.08161621 22.26333008 37.20229492 21.79931641 38.35693359 C20.5625 41.0625 20.5625 41.0625 18.5625 43.0625 C16.1875 43.25 16.1875 43.25 13.5625 42.0625 C12.58056641 40.34912109 12.58056641 40.34912109 11.6640625 38.1484375 C11.3222998 37.33689209 10.98053711 36.52534668 10.62841797 35.68920898 C10.10078857 34.38898804 10.10078857 34.38898804 9.5625 33.0625 C9.20945801 32.20019775 8.85641602 31.33789551 8.49267578 30.44946289 C7.42016782 27.80438342 6.36387801 25.1535519 5.3125 22.5 C4.075 19.385625 2.8375 16.27125 1.5625 13.0625 C1.2325 22.6325 0.9025 32.2025 0.5625 42.0625 C-1.9125 42.5575 -1.9125 42.5575 -4.4375 43.0625 C-7.03207003 40.46792997 -6.69615403 38.65562225 -6.74104309 35.11915588 C-6.74013168 34.307686 -6.73922028 33.49621613 -6.73828125 32.66015625 C-6.74256638 31.82665146 -6.7468515 30.99314667 -6.75126648 30.13438416 C-6.75701435 28.3699535 -6.75750668 26.60549915 -6.75317383 24.84106445 C-6.75001645 22.13907467 -6.77345745 19.43818222 -6.79882812 16.73632812 C-6.80110131 15.02343888 -6.80180453 13.31054669 -6.80078125 11.59765625 C-6.809991 10.7882106 -6.81920074 9.97876495 -6.82868958 9.14479065 C-6.7822231 3.51919208 -6.7822231 3.51919208 -5.1290741 1.3290863 C-3.4375 0.0625 -3.4375 0.0625 0 0 Z " fill="#030303" transform="translate(898.4375,9.9375)"/>
<path d="M0 0 C4.35775592 2.56381186 6.03975434 5.80631308 7.6875 10.5 C8.16518734 13.48133999 8.15911935 16.36185224 8.078125 19.375 C8.07246521 20.18493408 8.06680542 20.99486816 8.06097412 21.8293457 C8.0387902 24.38686167 7.98863203 26.94291591 7.9375 29.5 C7.91741157 31.24607335 7.89916493 32.99216892 7.8828125 34.73828125 C7.83898505 38.99274075 7.77008721 43.24612357 7.6875 47.5 C6.20843108 47.52689216 4.72922517 47.54634621 3.25 47.5625 C2.42628906 47.57410156 1.60257813 47.58570313 0.75390625 47.59765625 C-1.3125 47.5 -1.3125 47.5 -2.3125 46.5 C-2.43545348 44.0277975 -2.49855957 41.57917594 -2.5234375 39.10546875 C-2.5515134 37.57746338 -2.58017791 36.04946873 -2.609375 34.52148438 C-2.65060442 32.10539124 -2.68747819 29.6894967 -2.71386719 27.27319336 C-2.74150631 24.94602714 -2.78738544 22.61978011 -2.8359375 20.29296875 C-2.83919037 19.57304245 -2.84244324 18.85311615 -2.84579468 18.1113739 C-2.94664509 13.98898293 -3.3032104 11.42875675 -6.3125 8.5 C-9.6453336 7.14885124 -10.99981214 7.37875369 -14.375 8.6875 C-17.30337238 10.49436806 -19.19232903 11.79926616 -21.3125 14.5 C-21.73051769 17.1673866 -21.91719958 19.44108981 -21.921875 22.109375 C-21.93841125 22.83618469 -21.95494751 23.56299438 -21.97198486 24.31182861 C-22.02042361 26.62463869 -22.04182489 28.93679157 -22.0625 31.25 C-22.09066341 32.82164757 -22.12059137 34.39326459 -22.15234375 35.96484375 C-22.22618047 39.80984169 -22.27577948 43.65447572 -22.3125 47.5 C-23.79156892 47.52689216 -25.27077483 47.54634621 -26.75 47.5625 C-27.57371094 47.57410156 -28.39742187 47.58570313 -29.24609375 47.59765625 C-31.3125 47.5 -31.3125 47.5 -32.3125 46.5 C-32.41063987 45.06259647 -32.4404828 43.62043673 -32.44189453 42.1796875 C-32.44504669 41.26203613 -32.44819885 40.34438477 -32.45144653 39.39892578 C-32.4494223 38.40103027 -32.44739807 37.40313477 -32.4453125 36.375 C-32.44626923 35.35776855 -32.44722595 34.34053711 -32.44821167 33.29248047 C-32.44889361 31.13704364 -32.44703835 28.98160478 -32.44287109 26.82617188 C-32.43752305 23.51427629 -32.44281563 20.20251633 -32.44921875 16.890625 C-32.44855797 14.80208303 -32.44727681 12.71354115 -32.4453125 10.625 C-32.44733673 9.62710449 -32.44936096 8.62920898 -32.45144653 7.60107422 C-32.44829437 6.68342285 -32.44514221 5.76577148 -32.44189453 4.8203125 C-32.44109894 4.00836426 -32.44030334 3.19641602 -32.43948364 2.35986328 C-32.3125 0.5 -32.3125 0.5 -31.3125 -0.5 C-28.64191149 -0.64115161 -25.98817762 -0.54247107 -23.3125 -0.5 C-22.9825 0.82 -22.6525 2.14 -22.3125 3.5 C-21.384375 2.860625 -20.45625 2.22125 -19.5 1.5625 C-13.38430874 -2.39471199 -6.73485532 -2.86294411 0 0 Z " fill="#020202" transform="translate(705.3125,197.5)"/>
<path d="M0 0 C1.02975197 0.01077827 1.02975197 0.01077827 2.08030701 0.02177429 C2.78537888 0.02223251 3.49045074 0.02269073 4.21688843 0.02316284 C5.70726708 0.02618442 7.1976426 0.03406794 8.68797302 0.0464325 C10.97706709 0.06469849 13.26575703 0.06694213 15.55491638 0.06669617 C17.00088344 0.07161098 18.44684775 0.07743915 19.89280701 0.08427429 C20.92559532 0.08594353 20.92559532 0.08594353 21.97924805 0.08764648 C26.80409576 0.13618805 26.80409576 0.13618805 27.92015076 1.25224304 C28.04515076 4.75224304 28.04515076 4.75224304 27.92015076 8.25224304 C26.92015076 9.25224304 26.92015076 9.25224304 24.60350037 9.36576843 C23.60326843 9.36053162 22.6030365 9.3552948 21.57249451 9.34989929 C20.49290466 9.34667664 19.41331482 9.34345398 18.30101013 9.34013367 C17.16470154 9.33175476 16.02839294 9.32337585 14.85765076 9.31474304 C13.71747498 9.31023132 12.57729919 9.3057196 11.40257263 9.30107117 C8.57507658 9.28924064 5.74760731 9.27130455 2.92015076 9.25224304 C2.92015076 15.85224304 2.92015076 22.45224304 2.92015076 29.25224304 C4.56886169 29.24064148 6.21757263 29.22903992 7.91624451 29.21708679 C10.0633788 29.20771066 12.2105143 29.19861027 14.35765076 29.18974304 C15.44626404 29.18136414 16.53487732 29.17298523 17.65647888 29.16435242 C18.69095154 29.16112976 19.72542419 29.1579071 20.79124451 29.15458679 C21.74958191 29.14934998 22.70791931 29.14411316 23.69529724 29.13871765 C25.92015076 29.25224304 25.92015076 29.25224304 26.92015076 30.25224304 C27.04515076 33.25224304 27.04515076 33.25224304 26.92015076 36.25224304 C25.92015076 37.25224304 25.92015076 37.25224304 23.69529724 37.36576843 C22.73695984 37.36053162 21.77862244 37.3552948 20.79124451 37.34989929 C19.85981628 37.34740173 18.92838806 37.34490417 17.96873474 37.34233093 C16.18124817 37.32867493 16.18124817 37.32867493 14.35765076 37.31474304 C10.58327576 37.29411804 6.80890076 37.27349304 2.92015076 37.25224304 C2.92015076 46.49224304 2.92015076 55.73224304 2.92015076 65.25224304 C-0.04984924 65.25224304 -3.01984924 65.25224304 -6.07984924 65.25224304 C-7.85672569 63.47536659 -7.21672896 60.8834505 -7.22511292 58.47904968 C-7.23149277 57.24429398 -7.23787262 56.00953827 -7.2444458 54.73736572 C-7.24597436 53.37904397 -7.24708839 52.0207217 -7.24781799 50.66239929 C-7.25102894 49.27856409 -7.25439289 47.89472924 -7.25790405 46.51089478 C-7.26390148 43.60639153 -7.26574333 40.70191806 -7.26515198 37.79740906 C-7.26505033 34.07022158 -7.27870196 30.34322452 -7.29592419 26.61608219 C-7.30702704 23.75682696 -7.30907172 20.89761801 -7.30854225 18.03834343 C-7.30972499 16.66398398 -7.31416312 15.28962343 -7.32187462 13.91528511 C-7.33163922 11.99515852 -7.32754139 10.07497642 -7.32276917 8.15483093 C-7.32419418 7.06086502 -7.3256192 5.96689911 -7.3270874 4.83978271 C-6.86001502 -0.04849317 -4.32885204 0.02089845 0 0 Z " fill="#020202" transform="translate(425.07984924316406,179.7477569580078)"/>
<path d="M0 0 C2.375 1.5625 2.375 1.5625 3.375 2.5625 C3.41580783 4.56208364 3.41754356 6.56295254 3.375 8.5625 C2.385 8.8925 1.395 9.2225 0.375 9.5625 C-0.21796875 9.25570312 -0.8109375 8.94890625 -1.421875 8.6328125 C-4.34395808 7.21321895 -6.64520662 7.3672871 -9.875 7.4375 C-11.49148438 7.46457031 -11.49148438 7.46457031 -13.140625 7.4921875 C-14.37039063 7.52699219 -14.37039063 7.52699219 -15.625 7.5625 C-15.625 9.8725 -15.625 12.1825 -15.625 14.5625 C-14.98433594 14.87703125 -14.34367188 15.1915625 -13.68359375 15.515625 C2.43400541 23.49035365 2.43400541 23.49035365 5.375 27.5625 C6.85887482 33.59692426 6.47807949 36.99835746 3.375 42.5625 C0.49258216 46.24006759 -2.07482589 47.56973474 -6.625 48.5625 C-13.69912244 49.17999614 -19.17651887 48.54790793 -25.625 45.5625 C-26.625 44.5625 -26.625 44.5625 -26.72265625 42.71484375 C-26.69010417 40.6640625 -26.65755208 38.61328125 -26.625 36.5625 C-23.63372232 36.97988758 -21.01794375 37.38670937 -18.25 38.625 C-14.47398332 39.97357739 -11.63709685 39.8860562 -7.625 39.5625 C-5.43088748 38.62041909 -5.43088748 38.62041909 -4.625 36.5625 C-4.54635836 33.56693996 -4.54635836 33.56693996 -5.625 30.5625 C-8.37636912 28.70457521 -8.37636912 28.70457521 -11.8125 27.5 C-22.99453505 22.82342991 -22.99453505 22.82342991 -25.625 17.5625 C-26.11687003 12.55510181 -26.41820681 8.08545708 -24.0625 3.5625 C-17.02357585 -2.21302751 -8.48481963 -3.36466985 0 0 Z " fill="#030303" transform="translate(842.625,197.4375)"/>
<path d="M0 0 C1.55859375 1.16796875 1.55859375 1.16796875 3.55859375 4.16796875 C3.18359375 7.35546875 3.18359375 7.35546875 2.55859375 10.16796875 C-0.60442056 9.68872416 -2.90228628 8.94606355 -5.81640625 7.54296875 C-10.01415341 5.95071983 -12.14743643 5.95269427 -16.44140625 7.16796875 C-20.55488681 10.05852266 -21.47589831 13.34042906 -22.44140625 18.16796875 C-22.91014624 24.07409268 -22.28222632 28.89550023 -19.44140625 34.16796875 C-17.68730571 36.17933737 -16.72343944 37.06612343 -14.19140625 37.98046875 C-9.67548622 38.28837239 -5.84740904 37.25259948 -2.25390625 34.48046875 C-0.44140625 33.16796875 -0.44140625 33.16796875 1.80859375 33.48046875 C2.38609375 33.70734375 2.96359375 33.93421875 3.55859375 34.16796875 C3.87109375 37.41796875 3.87109375 37.41796875 3.55859375 41.16796875 C-0.80194705 45.91326315 -5.99230625 47.25218237 -12.25390625 47.54296875 C-17.60695615 47.39785595 -22.03152049 46.27929131 -26.44140625 43.16796875 C-32.3009508 36.57955403 -33.88827464 28.61750167 -33.6875 20.0078125 C-32.99702878 12.03999381 -30.6331696 5.43755458 -24.44140625 0.16796875 C-16.69000424 -4.54366777 -7.84428196 -4.25646069 0 0 Z " fill="#030303" transform="translate(756.44140625,198.83203125)"/>
<path d="M0 0 C1.051875 -0.00386719 1.051875 -0.00386719 2.125 -0.0078125 C4 0.125 4 0.125 6 1.125 C6.59355614 3.77360427 6.74209269 6.41697322 7 9.125 C6.01 9.785 5.02 10.445 4 11.125 C2.88625 10.898125 1.7725 10.67125 0.625 10.4375 C-3.13620759 9.68774559 -3.13620759 9.68774559 -5.8125 12.4375 C-6.534375 13.324375 -7.25625 14.21125 -8 15.125 C-8.66 15.785 -9.32 16.445 -10 17.125 C-10.35684061 20.31439201 -10.35684061 20.31439201 -10.37890625 24.06640625 C-10.39590073 24.74928207 -10.4128952 25.4321579 -10.43040466 26.13572693 C-10.4835927 28.31955709 -10.5238619 30.50336767 -10.5625 32.6875 C-10.60638161 34.87510619 -10.65303827 37.06256249 -10.70530701 39.24998474 C-10.75192951 41.23235589 -10.78937605 43.21493642 -10.82641602 45.19750977 C-11 48.125 -11 48.125 -12 49.125 C-13.8125 49.2578125 -13.8125 49.2578125 -16 49.25 C-16.721875 49.25257813 -17.44375 49.25515625 -18.1875 49.2578125 C-20 49.125 -20 49.125 -21 48.125 C-21.09813987 46.68759647 -21.1279828 45.24543673 -21.12939453 43.8046875 C-21.13254669 42.88703613 -21.13569885 41.96938477 -21.13894653 41.02392578 C-21.1369223 40.02603027 -21.13489807 39.02813477 -21.1328125 38 C-21.13376923 36.98276855 -21.13472595 35.96553711 -21.13571167 34.91748047 C-21.13639361 32.76204364 -21.13453835 30.60660478 -21.13037109 28.45117188 C-21.12502305 25.13927629 -21.13031563 21.82751633 -21.13671875 18.515625 C-21.13605797 16.42708303 -21.13477681 14.33854115 -21.1328125 12.25 C-21.13483673 11.25210449 -21.13686096 10.25420898 -21.13894653 9.22607422 C-21.13579437 8.30842285 -21.13264221 7.39077148 -21.12939453 6.4453125 C-21.12859894 5.63336426 -21.12780334 4.82141602 -21.12698364 3.98486328 C-21 2.125 -21 2.125 -20 1.125 C-17.32941149 0.98384839 -14.67567762 1.08252893 -12 1.125 C-11.67 2.445 -11.34 3.765 -11 5.125 C-10.21625 4.485625 -9.4325 3.84625 -8.625 3.1875 C-5.43702606 0.68266333 -3.95688983 -0.01454739 0 0 Z " fill="#020202" transform="translate(613,195.875)"/>
<path d="M0 0 C0.99 0.66 1.98 1.32 3 2 C3.40843923 4.71203652 3.13336867 7.2437142 3 10 C0 11 0 11 -2.9375 10.5 C-6.59816748 9.90045254 -6.59816748 9.90045254 -10 11 C-11.18330183 12.86644906 -11.18330183 12.86644906 -12 15 C-12.99 16.485 -12.99 16.485 -14 18 C-14.37032217 21.29770342 -14.37032217 21.29770342 -14.4140625 25.07421875 C-14.43342865 25.7580513 -14.4527948 26.44188385 -14.4727478 27.1464386 C-14.53243997 29.32666625 -14.57888631 31.50694702 -14.625 33.6875 C-14.66318943 35.1673405 -14.70224174 36.647159 -14.7421875 38.12695312 C-14.83813202 41.7511005 -14.92220151 45.37541257 -15 49 C-17.97 49 -20.94 49 -24 49 C-24 33.16 -24 17.32 -24 1 C-21.36 1 -18.72 1 -16 1 C-15.34 1.99 -14.68 2.98 -14 4 C-13.175 3.34 -12.35 2.68 -11.5 2 C-7.58888608 -0.61979602 -4.6250086 -0.45491888 0 0 Z " fill="#020202" transform="translate(488,196)"/>
<path d="M0 0 C1.87655273 -0.00193359 1.87655273 -0.00193359 3.79101562 -0.00390625 C5.10908203 -0.00003906 6.42714844 0.00382813 7.78515625 0.0078125 C9.75645508 0.00201172 9.75645508 0.00201172 11.76757812 -0.00390625 C13.01990234 -0.00261719 14.27222656 -0.00132813 15.5625 0 C17.29681274 0.00169189 17.29681274 0.00169189 19.06616211 0.00341797 C21.84765625 0.1328125 21.84765625 0.1328125 23.84765625 1.1328125 C23.89037725 2.79893155 23.88829457 4.46664135 23.84765625 6.1328125 C23.51765625 6.4628125 23.18765625 6.7928125 22.84765625 7.1328125 C19.21765625 7.1328125 15.58765625 7.1328125 11.84765625 7.1328125 C11.84765625 18.6828125 11.84765625 30.2328125 11.84765625 42.1328125 C8.87765625 42.6278125 8.87765625 42.6278125 5.84765625 43.1328125 C4.84765625 42.1328125 4.84765625 42.1328125 4.73413086 38.80639648 C4.73428996 37.33055694 4.73998311 35.85471181 4.75 34.37890625 C4.75141495 33.60345963 4.7528299 32.828013 4.75428772 32.02906799 C4.7599028 29.54277756 4.77245779 27.0565759 4.78515625 24.5703125 C4.79016931 22.88867317 4.79473255 21.20703244 4.79882812 19.52539062 C4.80987712 15.39449684 4.8271518 11.26366974 4.84765625 7.1328125 C4.06519531 7.14441406 3.28273438 7.15601563 2.4765625 7.16796875 C1.46464844 7.17699219 0.45273437 7.18601562 -0.58984375 7.1953125 C-1.59917969 7.20691406 -2.60851562 7.21851563 -3.6484375 7.23046875 C-6.15234375 7.1328125 -6.15234375 7.1328125 -7.15234375 6.1328125 C-7.27734375 3.6328125 -7.27734375 3.6328125 -7.15234375 1.1328125 C-5.32639121 -0.69314004 -2.45111155 0.0023935 0 0 Z " fill="#010101" transform="translate(864.15234375,9.8671875)"/>
<path d="M0 0 C39.27 0 78.54 0 119 0 C119 0.33 119 0.66 119 1 C79.73 1 40.46 1 0 1 C0 0.67 0 0.34 0 0 Z " fill="#000000" transform="translate(695,2)"/>
<path d="M0 0 C30.69 0 61.38 0 93 0 C93 0.33 93 0.66 93 1 C62.31 1 31.62 1 0 1 C0 0.67 0 0.34 0 0 Z " fill="#000000" transform="translate(35,2)"/>
<path d="M0 0 C8.25 0 16.5 0 25 0 C25 0.33 25 0.66 25 1 C16.75 1 8.5 1 0 1 C0 0.67 0 0.34 0 0 Z " fill="#000000" transform="translate(596,2)"/>
<path d="M0 0 C8.25 0 16.5 0 25 0 C25 0.33 25 0.66 25 1 C16.75 1 8.5 1 0 1 C0 0.67 0 0.34 0 0 Z " fill="#000000" transform="translate(456,2)"/>
<path d="M0 0 C7.92 0 15.84 0 24 0 C24 0.33 24 0.66 24 1 C16.08 1 8.16 1 0 1 C0 0.67 0 0.34 0 0 Z " fill="#000000" transform="translate(183,2)"/>
<path d="M0 0 C7.59 0 15.18 0 23 0 C23 0.33 23 0.66 23 1 C15.41 1 7.82 1 0 1 C0 0.67 0 0.34 0 0 Z " fill="#000000" transform="translate(651,2)"/>
<path d="M0 0 C1.98 0 3.96 0 6 0 C6 0.33 6 0.66 6 1 C4.02 1 2.04 1 0 1 C0 0.67 0 0.34 0 0 Z " fill="#000000" transform="translate(808,81)"/>
<path d="" fill="#000000" transform="translate(0,0)"/>
<path d="" fill="#000000" transform="translate(0,0)"/>
<path d="" fill="#000000" transform="translate(0,0)"/>
<path d="" fill="#000000" transform="translate(0,0)"/>
<path d="" fill="#000000" transform="translate(0,0)"/>
<path d="" fill="#000000" transform="translate(0,0)"/>
</svg>
