<?xml version="1.0" encoding="UTF-8"?>
<svg version="1.1" xmlns="http://www.w3.org/2000/svg" width="604" height="413">
<path d="M0 0 C14.6334375 -0.12375 14.6334375 -0.12375 29.5625 -0.25 C32.63119385 -0.28641602 35.6998877 -0.32283203 38.86157227 -0.36035156 C41.30484315 -0.37203845 43.74812184 -0.38223028 46.19140625 -0.390625 C47.45110229 -0.41108887 48.71079834 -0.43155273 50.00866699 -0.45263672 C56.85116427 -0.45535388 61.58304304 -0.38825487 67 4 C70.34648738 7.96160322 70.48065384 11.89885385 70.50390625 16.8984375 C70.51389145 17.65162262 70.52387665 18.40480774 70.53416443 19.18081665 C70.54930364 20.76925185 70.55639152 22.3577818 70.5559082 23.94628906 C70.56246375 26.36164499 70.61695832 28.7728719 70.67382812 31.1875 C70.81627675 44.09544051 70.81627675 44.09544051 67.20703125 48.51171875 C64.15821461 51.36280574 61.05715819 52.26971152 57 53 C60.58007063 58.5471424 64.2994293 63.7149396 68.6796875 68.6640625 C70.4776632 71.84509644 70.21720104 74.4118388 70 78 C55.86789388 80.29940444 55.86789388 80.29940444 52.0234375 77.625 C50.75 75.5625 50.75 75.5625 49.55078125 73.09765625 C47.44477684 68.89095223 44.73717945 65.26831479 41.9375 61.5 C41.42993164 60.78142822 40.92236328 60.06285645 40.39941406 59.32250977 C37.62762552 55.44259819 37.62762552 55.44259819 33.6484375 53.03515625 C32.77445312 53.02355469 31.90046875 53.01195312 31 53 C29.68386719 52.96777344 28.36773437 52.93554688 27.01171875 52.90234375 C25.57027594 52.90799361 24.12885813 52.92088534 22.6875 52.9375 C18.8821875 52.9684375 18.8821875 52.9684375 15 53 C15 61.25 15 69.5 15 78 C10.05 78 5.1 78 0 78 C0 52.26 0 26.52 0 0 Z M15 17 C15 23.27 15 29.54 15 36 C28.2 36 41.4 36 55 36 C55 29.73 55 23.46 55 17 C41.8 17 28.6 17 15 17 Z " fill="#4B4B4B" transform="translate(402,158)"/>
<path d="M0 0 C4.41272274 0.1622517 6.72984598 1.19356632 9.82397461 4.37255859 C18.15991211 14.27443641 18.15991211 14.27443641 18.15991211 18.09912109 C18.81991211 18.09912109 19.47991211 18.09912109 20.15991211 18.09912109 C21.78668302 20.23682727 23.29970855 22.3666745 24.78491211 24.59912109 C25.20514648 25.21916016 25.62538086 25.83919922 26.05834961 26.47802734 C27.09828378 28.01429373 28.12988266 29.55619633 29.15991211 31.09912109 C32.64312428 29.69101405 33.97428315 28.23325321 35.78491211 24.97412109 C37.01147461 22.77880859 37.01147461 22.77880859 38.15991211 21.09912109 C38.81991211 21.09912109 39.47991211 21.09912109 40.15991211 21.09912109 C40.81991211 19.44912109 41.47991211 17.79912109 42.15991211 16.09912109 C42.81991211 16.09912109 43.47991211 16.09912109 44.15991211 16.09912109 C44.42545898 15.38369141 44.69100586 14.66826172 44.96459961 13.93115234 C47.32115994 8.34779862 49.671316 5.41507889 54.15991211 1.09912109 C59.43991211 1.09912109 64.71991211 1.09912109 70.15991211 1.09912109 C70.15991211 26.83912109 70.15991211 52.57912109 70.15991211 79.09912109 C65.20991211 79.09912109 60.25991211 79.09912109 55.15991211 79.09912109 C55.15991211 62.26912109 55.15991211 45.43912109 55.15991211 28.09912109 C54.49991211 28.09912109 53.83991211 28.09912109 53.15991211 28.09912109 C52.93303711 28.98599609 52.70616211 29.87287109 52.47241211 30.78662109 C50.97589466 34.56354608 49.07722506 36.32767379 46.15991211 39.09912109 C44.86471215 41.26532654 44.86471215 41.26532654 44.15991211 43.09912109 C43.49991211 43.09912109 42.83991211 43.09912109 42.15991211 43.09912109 C42.07741211 43.67662109 41.99491211 44.25412109 41.90991211 44.84912109 C40.95239821 47.72166279 39.34562836 49.05001211 37.15991211 51.09912109 C36.66491211 52.08912109 36.66491211 52.08912109 36.15991211 53.09912109 C35.49991211 53.09912109 34.83991211 53.09912109 34.15991211 53.09912109 C33.87116211 53.73849609 33.58241211 54.37787109 33.28491211 55.03662109 C32.15991211 57.09912109 32.15991211 57.09912109 30.15991211 58.09912109 C26.54994291 54.62356564 23.4468868 51.0412593 20.40991211 47.03662109 C19.63131836 46.01439453 18.85272461 44.99216797 18.05053711 43.93896484 C14.07984927 38.66438897 10.12116248 33.38078826 6.15991211 28.09912109 C5.82991211 44.92912109 5.49991211 61.75912109 5.15991211 79.09912109 C0.20991211 79.09912109 -4.74008789 79.09912109 -9.84008789 79.09912109 C-9.8626395 69.07683945 -9.88100332 59.05457452 -9.89190006 49.03227329 C-9.89712875 44.37900923 -9.90422612 39.72576336 -9.91552734 35.07250977 C-9.92635675 30.58567563 -9.93236484 26.09885905 -9.93496513 21.61201286 C-9.93681929 19.89631817 -9.94043971 18.18062448 -9.94581795 16.46493721 C-9.9530291 14.07027197 -9.9540788 11.67568013 -9.95361328 9.28100586 C-9.95720856 8.56459427 -9.96080383 7.84818268 -9.96450806 7.11006165 C-9.94892286 -0.2509475 -6.96843562 0.34066043 0 0 Z " fill="#565656" transform="translate(301.840087890625,156.90087890625)"/>
<path d="M0 0 C1.66036034 -0.00929787 1.66036034 -0.00929787 3.35426331 -0.01878357 C5.69002403 -0.02587245 8.02583539 -0.02272411 10.36157227 -0.01000977 C13.92624363 0.00384731 17.48828481 -0.03022245 21.05273438 -0.06835938 C23.32682356 -0.06931071 25.60091601 -0.06745096 27.875 -0.0625 C28.93561142 -0.07575821 29.99622284 -0.08901642 31.088974 -0.10267639 C36.74906062 -0.03182033 40.57754455 0.4647622 45.08851624 4.00648499 C48.99116226 8.30764613 49.87660889 11.60416485 49.84448242 17.3762207 C49.84513954 18.3721801 49.84513954 18.3721801 49.84580994 19.38825989 C49.84373048 21.56904154 49.82044086 23.74904121 49.796875 25.9296875 C49.79127601 27.44711385 49.78700734 28.96454565 49.78401184 30.48197937 C49.77258683 34.46545525 49.7431402 38.44860019 49.7098999 42.4319458 C49.67914822 46.50080896 49.66549564 50.56972587 49.65039062 54.63867188 C49.61826786 62.61475173 49.56551944 70.59049963 49.50390625 78.56640625 C44.55390625 78.56640625 39.60390625 78.56640625 34.50390625 78.56640625 C34.50390625 70.31640625 34.50390625 62.06640625 34.50390625 53.56640625 C20.97390625 53.56640625 7.44390625 53.56640625 -6.49609375 53.56640625 C-6.49609375 61.81640625 -6.49609375 70.06640625 -6.49609375 78.56640625 C-11.44609375 78.56640625 -16.39609375 78.56640625 -21.49609375 78.56640625 C-21.58670394 70.09923214 -21.65998678 61.63243919 -21.70334244 53.16490936 C-21.72415802 49.2324767 -21.75236382 45.30039486 -21.79785156 41.36816406 C-21.84152675 37.56855351 -21.86527614 33.76927898 -21.87560272 29.96943665 C-21.88295549 28.52462988 -21.89731343 27.07984011 -21.91901398 25.63517761 C-22.14057267 10.2648018 -22.14057267 10.2648018 -17.49609375 4.56640625 C-12.34116528 -0.45230364 -6.7962096 -0.03172142 0 0 Z M-6.49609375 17.56640625 C-6.49609375 24.16640625 -6.49609375 30.76640625 -6.49609375 37.56640625 C7.03390625 37.56640625 20.56390625 37.56640625 34.50390625 37.56640625 C34.50390625 30.96640625 34.50390625 24.36640625 34.50390625 17.56640625 C20.97390625 17.56640625 7.44390625 17.56640625 -6.49609375 17.56640625 Z " fill="#454545" transform="translate(110.49609375,157.43359375)"/>
<path d="M0 0 C4.62 0 9.24 0 14 0 C15 1 15 1 15.12025452 3.43605042 C15.1169236 5.05820717 15.1169236 5.05820717 15.11352539 6.71313477 C15.11344986 7.9343251 15.11337433 9.15551544 15.11329651 10.41371155 C15.10818911 11.75627686 15.10297311 13.09884175 15.09765625 14.44140625 C15.09579199 15.80761158 15.09436813 17.17381757 15.09336853 18.5400238 C15.08954394 22.14201695 15.07971417 25.74397 15.06866455 29.34594727 C15.05844916 33.01903745 15.05387064 36.69213409 15.04882812 40.36523438 C15.03809184 47.57684123 15.02101614 54.788415 15 62 C15.68682358 61.99777939 16.37364716 61.99555878 17.08128357 61.99327087 C24.20205162 61.97122105 31.32281004 61.95609467 38.44360352 61.94506836 C41.10441481 61.94002617 43.76522332 61.93319264 46.42602539 61.92456055 C50.24105516 61.91248991 54.05604844 61.90677071 57.87109375 61.90234375 C59.66793861 61.89460182 59.66793861 61.89460182 61.50108337 61.88670349 C63.15268211 61.88659019 63.15268211 61.88659019 64.83764648 61.88647461 C66.2999192 61.88314369 66.2999192 61.88314369 67.79173279 61.87974548 C70 62 70 62 71 63 C71 67.95 71 72.9 71 78 C47.57 78 24.14 78 0 78 C0 52.26 0 26.52 0 0 Z " fill="#4F4F4F" transform="translate(169,158)"/>
<path d="M0 0 C4.62 0 9.24 0 14 0 C15.68503699 1.68503699 15.11965983 3.76259884 15.12442017 6.01094055 C15.12082489 6.72735214 15.11722961 7.44376373 15.11352539 8.18188477 C15.11367142 8.93305573 15.11381744 9.68422668 15.1139679 10.4581604 C15.11326863 12.95260459 15.10547564 15.44697503 15.09765625 17.94140625 C15.09579212 19.66633564 15.09436819 21.39126557 15.09336853 23.11619568 C15.08954297 27.66512503 15.07971238 32.21402267 15.06866455 36.76293945 C15.05845124 41.40120006 15.05387108 46.03946577 15.04882812 50.67773438 C15.03809013 59.78517246 15.02049304 68.89257863 15 78 C10.05 78 5.1 78 0 78 C0 52.26 0 26.52 0 0 Z " fill="#525252" transform="translate(381,158)"/>
<path d="M0 0 C1.6874269 0.00015917 3.37485866 0.00585622 5.06225586 0.01586914 C6.39189613 0.01799156 6.39189613 0.01799156 7.74839783 0.02015686 C10.59133215 0.02577324 13.43418892 0.03832848 16.27709961 0.05102539 C18.19962452 0.05603828 20.12215065 0.06060155 22.04467773 0.06469727 C26.7680151 0.07574798 31.49129419 0.09302356 36.21459961 0.11352539 C36.21459961 5.39352539 36.21459961 10.67352539 36.21459961 16.11352539 C22.68459961 16.11352539 9.15459961 16.11352539 -4.78540039 16.11352539 C-4.78540039 0.14351572 -4.78540039 0.14351572 0 0 Z " fill="#606060" transform="translate(247.785400390625,195.886474609375)"/>
<path d="M0 0 C1.60875 -0.00386719 1.60875 -0.00386719 3.25 -0.0078125 C6 0.125 6 0.125 8 1.125 C8.99 0.795 9.98 0.465 11 0.125 C12.49774018 0.03274789 13.99942974 -0.0050019 15.5 0 C16.2734375 -0.00257813 17.046875 -0.00515625 17.84375 -0.0078125 C20 0.125 20 0.125 23 1.125 C27.15119159 7.91186879 25.96420559 15.60884316 25 23.125 C19.17094593 24.40760045 12.65703644 25.76983208 7.375 22.5 C5.59158021 19.41954763 5.48813973 17.63489896 6 14.125 C7.77984405 10.9890843 8.52308207 10.28397264 12 9.125 C14.33299825 9.08545766 16.66708189 9.08098268 19 9.125 C18.34 8.135 17.68 7.145 17 6.125 C16.37351562 6.20878906 15.74703125 6.29257813 15.1015625 6.37890625 C13.87566406 6.53166016 13.87566406 6.53166016 12.625 6.6875 C11.81289063 6.79191406 11.00078125 6.89632812 10.1640625 7.00390625 C8 7.125 8 7.125 6 6.125 C2.19251133 7.04005591 2.19251133 7.04005591 -1 9.125 C-1.23527773 11.47487262 -1.41386417 13.83056039 -1.5625 16.1875 C-1.64628906 17.47785156 -1.73007812 18.76820313 -1.81640625 20.09765625 C-1.87699219 21.09667969 -1.93757813 22.09570312 -2 23.125 C-3.65 23.455 -5.3 23.785 -7 24.125 C-8.2263757 21.67224859 -8.11415314 20.0744219 -8.09765625 17.3359375 C-8.09443359 16.39492188 -8.09121094 15.45390625 -8.08789062 14.484375 C-8.07951172 13.49953125 -8.07113281 12.5146875 -8.0625 11.5 C-8.05798828 10.50742187 -8.05347656 9.51484375 -8.04882812 8.4921875 C-8.03702145 6.0363984 -8.020554 3.58072896 -8 1.125 C-5.26922124 -0.24038938 -3.04439633 -0.00731826 0 0 Z M12 16.125 C12.33 17.115 12.66 18.105 13 19.125 C14.65 18.795 16.3 18.465 18 18.125 C18.33 16.805 18.66 15.485 19 14.125 C14.95377498 13.75519987 14.95377498 13.75519987 12 16.125 Z " fill="#5E5E5E" transform="translate(305,245.875)"/>
<path d="M0 0 C3.60401481 -0.08701039 7.20776012 -0.14039388 10.8125 -0.1875 C12.34874023 -0.22520508 12.34874023 -0.22520508 13.91601562 -0.26367188 C15.39038086 -0.27817383 15.39038086 -0.27817383 16.89453125 -0.29296875 C18.25348511 -0.31653442 18.25348511 -0.31653442 19.63989258 -0.34057617 C22.45970081 0.06633729 23.29601221 0.76419436 25 3 C25.94193717 5.63440181 26.41457053 8.2529848 27 11 C27.66 11 28.32 11 29 11 C29.20496094 10.28972656 29.40992188 9.57945312 29.62109375 8.84765625 C29.89050781 7.92855469 30.15992188 7.00945312 30.4375 6.0625 C30.70433594 5.14597656 30.97117187 4.22945312 31.24609375 3.28515625 C32 1 32 1 33 0 C35.5 -0.125 35.5 -0.125 38 0 C39.55073147 1.55073147 39.12969128 3.03062253 39.1328125 5.18359375 C39.13474609 6.45106445 39.13474609 6.45106445 39.13671875 7.74414062 C39.13285156 8.63294922 39.12898437 9.52175781 39.125 10.4375 C39.13080078 11.76491211 39.13080078 11.76491211 39.13671875 13.11914062 C39.13542969 13.96541016 39.13414062 14.81167969 39.1328125 15.68359375 C39.13168457 16.46275146 39.13055664 17.24190918 39.12939453 18.04467773 C39 20 39 20 38 22 C36.68 21.67 35.36 21.34 34 21 C33.505 17.535 33.505 17.535 33 14 C31.68 16.64 30.36 19.28 29 22 C25 20 25 20 23.75 17.375 C23.5025 16.59125 23.255 15.8075 23 15 C22.01 17.31 21.02 19.62 20 22 C19.01 21.34 18.02 20.68 17 20 C16.77862607 17.37302936 16.71837975 14.99106036 16.8125 12.375 C16.83280273 11.31539062 16.83280273 11.31539062 16.85351562 10.234375 C16.8888896 8.48925872 16.94269779 6.74453392 17 5 C15.02 5 13.04 5 11 5 C11 9.95 11 14.9 11 20 C9.68 20.33 8.36 20.66 7 21 C6 20 6 20 5.90234375 16.62109375 C5.90901631 15.22652923 5.92097468 13.83198257 5.9375 12.4375 C5.94201172 11.72658203 5.94652344 11.01566406 5.95117188 10.28320312 C5.96299136 8.52209987 5.98092737 6.76103964 6 5 C4.35 5 2.7 5 1 5 C0.67 3.35 0.34 1.7 0 0 Z " fill="#404042" transform="translate(476,161)"/>
<path d="M0 0 C1.15628906 -0.00257813 2.31257813 -0.00515625 3.50390625 -0.0078125 C6.4375 0.125 6.4375 0.125 8.4375 1.125 C7.73821023 4.04203734 6.92133262 6.89530099 6 9.75 C5.75378906 10.52601563 5.50757813 11.30203125 5.25390625 12.1015625 C4.4375 14.125 4.4375 14.125 2.4375 16.125 C3.6440625 16.6509375 3.6440625 16.6509375 4.875 17.1875 C7.4375 19.125 7.4375 19.125 8.5 22.5 C8.4375 26.125 8.4375 26.125 6.6875 29 C2.9659082 32.5148367 -0.48748409 32.34043178 -5.3359375 32.28515625 C-8.07819788 32.08790594 -10.16583652 31.47312321 -12.5625 30.125 C-13.9354863 27.3790274 -13.68662634 25.1660953 -13.5625 22.125 C-13.0675 20.64 -13.0675 20.64 -12.5625 19.125 C-12.49220879 16.55234182 -12.46879168 14.00858569 -12.5 11.4375 C-12.50676758 10.3846582 -12.50676758 10.3846582 -12.51367188 9.31054688 C-12.52543073 7.58199462 -12.54336546 5.85348635 -12.5625 4.125 C-11.9025 4.125 -11.2425 4.125 -10.5625 4.125 C-10.2325 3.135 -9.9025 2.145 -9.5625 1.125 C-6.18481526 -0.00089491 -3.55437928 -0.00794275 0 0 Z M-4.5625 5.125 C-5.2225 6.445 -5.8825 7.765 -6.5625 9.125 C-5.5725 10.115 -4.5825 11.105 -3.5625 12.125 C-2.2425 11.135 -0.9225 10.145 0.4375 9.125 C0.1075 8.135 -0.2225 7.145 -0.5625 6.125 C-2.57758358 5.39176204 -2.57758358 5.39176204 -4.5625 5.125 Z M-6.5625 23.125 C-5.9025 24.445 -5.2425 25.765 -4.5625 27.125 C-2.9125 26.795 -1.2625 26.465 0.4375 26.125 C0.4375 25.135 0.4375 24.145 0.4375 23.125 C-1.8725 23.125 -4.1825 23.125 -6.5625 23.125 Z " fill="#5F5F5F" transform="translate(345.5625,245.875)"/>
<path d="M0 0 C1.77368892 0.22886309 3.54401077 0.4839238 5.3125 0.75 C6.29863281 0.88921875 7.28476562 1.0284375 8.30078125 1.171875 C11 2 11 2 12.84375 3.78125 C14.17620083 6.33811511 14.31373415 7.8886927 14.1875 10.75 C14.16042969 11.54921875 14.13335937 12.3484375 14.10546875 13.171875 C14.07066406 13.77515625 14.03585937 14.3784375 14 15 C11.35541621 16.32229189 9.32238699 16.09677194 6.375 16.0625 C5.37210937 16.05347656 4.36921875 16.04445313 3.3359375 16.03515625 C2.56507813 16.02355469 1.79421875 16.01195312 1 16 C1.33 17.32 1.66 18.64 2 20 C2.71027344 19.84402344 3.42054688 19.68804687 4.15234375 19.52734375 C5.07144531 19.33269531 5.99054688 19.13804687 6.9375 18.9375 C8.31228516 18.64166016 8.31228516 18.64166016 9.71484375 18.33984375 C10.84599609 18.17162109 10.84599609 18.17162109 12 18 C13 19 13 19 13.0625 21.5625 C13.041875 22.366875 13.02125 23.17125 13 24 C8.38471264 25.53842912 3.8197958 25.52848638 -1 25 C-4.00197464 23.19881522 -5.45166366 22.09667268 -7 19 C-7.49495158 13.50684884 -7.91636187 8.64313164 -5.1875 3.75 C-3 2 -3 2 0 2 C0 1.34 0 0.68 0 0 Z M0 8 C0 8.66 0 9.32 0 10 C2.31 10 4.62 10 7 10 C6.67 8.68 6.34 7.36 6 6 C2.81509993 5.7226499 2.81509993 5.7226499 0 8 Z " fill="#4E4E4E" transform="translate(442,245)"/>
<path d="M0 0 C2.5 1.1875 2.5 1.1875 4 3 C5.17672841 7.23933944 5.11678327 11.44896014 5.0625 15.8125 C5.05798828 16.50537109 5.05347656 17.19824219 5.04882812 17.91210938 C5.03713156 19.60811068 5.01919924 21.30406703 5 23 C1.42171504 23.80674061 -1.95765945 24.1893828 -5.625 24.25 C-6.56601562 24.27578125 -7.50703125 24.3015625 -8.4765625 24.328125 C-11 24 -11 24 -12.78125 22.6328125 C-14.46915876 20.37144756 -14.86568586 18.82059704 -15 16 C-13.77224972 13.22140726 -12.68408567 11.51306425 -10.25 9.6875 C-7.13143415 8.73460488 -4.23765175 8.87547493 -1 9 C-1.66 8.01 -2.32 7.02 -3 6 C-5.5 5.58333333 -5.5 5.58333333 -8 6 C-8.66 6.66 -9.32 7.32 -10 8 C-10.99 7.67 -11.98 7.34 -13 7 C-13 5.35 -13 3.7 -13 2 C-8.67791023 -0.46555575 -4.87819937 -0.57390581 0 0 Z M-8 16 C-8 16.99 -8 17.98 -8 19 C-5.55519921 18.81171228 -5.55519921 18.81171228 -3 18 C-1.63979849 16.03241727 -1.63979849 16.03241727 -1 14 C-4.95457848 13.65176193 -4.95457848 13.65176193 -8 16 Z " fill="#565656" transform="translate(384,246)"/>
<path d="M0 0 C1.31291016 0.23976562 1.31291016 0.23976562 2.65234375 0.484375 C5.35820883 1.34393668 6.31775783 2.04275478 8.0625 4.25 C8.40307617 6.3347168 8.40307617 6.3347168 8.35546875 8.69921875 C8.34580078 9.54677734 8.33613281 10.39433594 8.32617188 11.26757812 C8.30103516 12.14865234 8.27589844 13.02972656 8.25 13.9375 C8.22969727 15.27651367 8.22969727 15.27651367 8.20898438 16.64257812 C8.17364079 18.84566166 8.12430493 21.04752582 8.0625 23.25 C3.3125 24.375 3.3125 24.375 1.0625 23.25 C0.75008545 20.53553021 0.54913408 17.91090639 0.4375 15.1875 C0.39882813 14.42888672 0.36015625 13.67027344 0.3203125 12.88867188 C0.22576438 11.00952805 0.14303244 9.12979664 0.0625 7.25 C-1.2575 7.25 -2.5775 7.25 -3.9375 7.25 C-5.93366554 9.24616554 -5.34733427 13.06701963 -5.5 15.8125 C-5.54318359 16.52341797 -5.58636719 17.23433594 -5.63085938 17.96679688 C-5.73721777 19.72761912 -5.83788846 21.4887832 -5.9375 23.25 C-7.59364657 23.63218767 -9.26207024 23.96395102 -10.9375 24.25 C-13.59593123 21.59156877 -12.80641754 14.82305409 -12.9375 11.25 C-12.75924956 7.88932711 -12.41643837 4.58046375 -11.9375 1.25 C-11.15375 1.105625 -10.37 0.96125 -9.5625 0.8125 C-3.0300212 -0.58731689 -3.0300212 -0.58731689 0 0 Z " fill="#5B5B5B" transform="translate(404.9375,245.75)"/>
<path d="M0 0 C5.61 0 11.22 0 17 0 C17.33 0.99 17.66 1.98 18 3 C17.67 3.66 17.34 4.32 17 5 C13.37 5 9.74 5 6 5 C6 7.31 6 9.62 6 12 C6.71027344 11.98839844 7.42054688 11.97679687 8.15234375 11.96484375 C9.07144531 11.95582031 9.99054688 11.94679687 10.9375 11.9375 C11.85402344 11.92589844 12.77054687 11.91429687 13.71484375 11.90234375 C16 12 16 12 17 13 C17.04063832 14.66617115 17.042721 16.33388095 17 18 C13.32589215 19.17571451 9.83070817 19.07366746 6 19 C6 22.63 6 26.26 6 30 C4.35 30.33 2.7 30.66 1 31 C0 30 0 30 -0.11352539 27.13256836 C-0.10828857 25.88096924 -0.10305176 24.62937012 -0.09765625 23.33984375 C-0.0962413 22.67537735 -0.09482635 22.01091095 -0.09336853 21.3263092 C-0.08775518 19.19666101 -0.07520054 17.06711661 -0.0625 14.9375 C-0.05748671 13.49674631 -0.05292351 12.05599097 -0.04882812 10.61523438 C-0.03863076 7.07675042 -0.0190583 3.53849187 0 0 Z " fill="#5E5E5E" transform="translate(277,239)"/>
<path d="M0 0 C0 1.65 0 3.3 0 5 C-2.64 5 -5.28 5 -8 5 C-6.25040869 6.93375882 -4.7091608 8.17024734 -2.4375 9.5 C0 11 0 11 2 14 C1.70534733 17.83048465 0.64788912 20.23070111 -2 23 C-5.69885125 23.76800576 -9.27570051 23.57983106 -13 23 C-15.6875 21 -15.6875 21 -17 19 C-16.505 17.515 -16.505 17.515 -16 16 C-12.50765756 15.90021879 -9.40562852 16.22157062 -6 17 C-6 16.34 -6 15.68 -6 15 C-6.83144531 14.68869141 -6.83144531 14.68869141 -7.6796875 14.37109375 C-11.92740643 12.56467947 -13.639871 11.82109413 -15.5625 7.4375 C-16 4 -16 4 -15 1 C-10.76102181 -2.22162342 -4.79265243 -1.59755081 0 0 Z " fill="#3D3D3D" transform="translate(473,247)"/>
<path d="M0 0 C0.33 1.98 0.66 3.96 1 6 C-1.97 5.67 -4.94 5.34 -8 5 C-10.31332486 8.46998729 -10.33957563 9.92509248 -10 14 C-9.01 15.485 -9.01 15.485 -8 17 C-5.07120629 16.37240135 -2.63904371 15.41377341 0 14 C0.33 16.31 0.66 18.62 1 21 C-2.00939753 22.73830497 -4.15942665 23.251248 -7.625 23.1875 C-8.40101563 23.18105469 -9.17703125 23.17460937 -9.9765625 23.16796875 C-12 23 -12 23 -14 22 C-14 21.34 -14 20.68 -14 20 C-14.66 20 -15.32 20 -16 20 C-17.41880263 17.16239474 -17.1320472 14.72317025 -17.125 11.5625 C-17.12757813 10.40878906 -17.13015625 9.25507813 -17.1328125 8.06640625 C-17 5 -17 5 -16 2 C-11.13915496 -1.97705503 -5.84414851 -1.9480495 0 0 Z " fill="#4D4D4D" transform="translate(433,247)"/>
<path d="M0 0 C1.093125 0.00257813 2.18625 0.00515625 3.3125 0.0078125 C4.405625 0.00523437 5.49875 0.00265625 6.625 0 C9.3125 0.1328125 9.3125 0.1328125 10.3125 1.1328125 C10.35313832 2.79898365 10.355221 4.46669345 10.3125 6.1328125 C8.3325 6.1328125 6.3525 6.1328125 4.3125 6.1328125 C3.15679296 9.59993361 2.98414707 12.6743081 2.75 16.3203125 C2.66621094 17.59261719 2.58242188 18.86492187 2.49609375 20.17578125 C2.43550781 21.15160156 2.37492187 22.12742187 2.3125 23.1328125 C0.6625 23.4628125 -0.9875 23.7928125 -2.6875 24.1328125 C-4.85703768 20.87850598 -4.90848516 20.21108865 -4.69921875 16.5 C-4.65216797 15.61183594 -4.60511719 14.72367187 -4.55664062 13.80859375 C-4.49669922 12.88433594 -4.43675781 11.96007812 -4.375 11.0078125 C-4.32666016 10.07582031 -4.27832031 9.14382812 -4.22851562 8.18359375 C-3.7686971 0.18624375 -3.7686971 0.18624375 0 0 Z " fill="#4D4D4D" transform="translate(359.6875,245.8671875)"/>
<path d="M0 0 C1.15628906 -0.00257813 2.31257813 -0.00515625 3.50390625 -0.0078125 C6.4375 0.125 6.4375 0.125 8.4375 1.125 C7.73416462 4.10222547 6.85501463 6.97756543 5.875 9.875 C5.60558594 10.67421875 5.33617187 11.4734375 5.05859375 12.296875 C4.85363281 12.90015625 4.64867187 13.5034375 4.4375 14.125 C3.1175 14.125 1.7975 14.125 0.4375 14.125 C-0.625 12.3125 -0.625 12.3125 -1.5625 10.125 C-1.2325 9.135 -0.9025 8.145 -0.5625 7.125 C-1.8825 6.795 -3.2025 6.465 -4.5625 6.125 C-4.9646875 7.8265625 -4.9646875 7.8265625 -5.375 9.5625 C-5.766875 10.738125 -6.15875 11.91375 -6.5625 13.125 C-7.5525 13.455 -8.5425 13.785 -9.5625 14.125 C-10.2225 13.795 -10.8825 13.465 -11.5625 13.125 C-11.9765625 11.05859375 -11.9765625 11.05859375 -12.1875 8.5625 C-12.26226562 7.73621094 -12.33703125 6.90992188 -12.4140625 6.05859375 C-12.46304687 5.42050781 -12.51203125 4.78242188 -12.5625 4.125 C-11.9025 4.125 -11.2425 4.125 -10.5625 4.125 C-10.2325 3.135 -9.9025 2.145 -9.5625 1.125 C-6.18481526 -0.00089491 -3.55437928 -0.00794275 0 0 Z " fill="#5A5A5A" transform="translate(345.5625,245.875)"/>
<path d="M0 0 C3.60389664 -0.11601004 7.20731467 -0.18718408 10.8125 -0.25 C11.83666016 -0.28351563 12.86082031 -0.31703125 13.91601562 -0.3515625 C14.89892578 -0.36445313 15.88183594 -0.37734375 16.89453125 -0.390625 C17.80050049 -0.41157227 18.70646973 -0.43251953 19.63989258 -0.45410156 C22 0 22 0 23.8190918 2.02441406 C24.2087915 2.67635742 24.59849121 3.32830078 25 4 C20.36297289 5.5456757 15.87528349 5.05735628 11 5 C11 9.95 11 14.9 11 20 C9.68 20.33 8.36 20.66 7 21 C6 20 6 20 5.90234375 16.62109375 C5.90901631 15.22652923 5.92097468 13.83198257 5.9375 12.4375 C5.94201172 11.72658203 5.94652344 11.01566406 5.95117188 10.28320312 C5.96299136 8.52209987 5.98092737 6.76103964 6 5 C4.35 5 2.7 5 1 5 C0.67 3.35 0.34 1.7 0 0 Z " fill="#565756" transform="translate(476,161)"/>
<path d="M0 0 C0.66 0 1.32 0 2 0 C2 25.41 2 50.82 2 77 C-2.62 77 -7.24 77 -12 77 C-12 64.46 -12 51.92 -12 39 C-11.67 39 -11.34 39 -11 39 C-10.67 50.88 -10.34 62.76 -10 75 C-5.545 74.505 -5.545 74.505 -1 74 C-0.15524064 57.15433647 0.12808924 40.3650975 0.0625 23.5 C0.05746441 21.20052183 0.05290522 18.90104257 0.04882812 16.6015625 C0.03800982 11.06768371 0.02144186 5.53384732 0 0 Z " fill="#404040" transform="translate(370,159)"/>
<path d="M0 0 C1.77368892 0.22886309 3.54401077 0.4839238 5.3125 0.75 C6.29863281 0.88921875 7.28476562 1.0284375 8.30078125 1.171875 C11 2 11 2 12.84375 3.78125 C14.17620083 6.33811511 14.31373415 7.8886927 14.1875 10.75 C14.16042969 11.54921875 14.13335937 12.3484375 14.10546875 13.171875 C14.07066406 13.77515625 14.03585937 14.3784375 14 15 C11.55025696 16.22487152 10.3246727 15.98796191 7.625 15.6875 C6.46871094 15.56955078 6.46871094 15.56955078 5.2890625 15.44921875 C2.90239122 14.98084469 1.11402254 14.18250119 -1 13 C1.76223278 10.23776722 4.20706617 10.42143709 8 10 C7.505 9.21625 7.01 8.4325 6.5 7.625 C5 5 5 5 5 3 C4.01 3 3.02 3 2 3 C0.53909212 4.5354878 0.53909212 4.5354878 -0.6875 6.5 C-1.12449219 7.1496875 -1.56148438 7.799375 -2.01171875 8.46875 C-2.33785156 8.9740625 -2.66398437 9.479375 -3 10 C-3.99 9.67 -4.98 9.34 -6 9 C-6 11.31 -6 13.62 -6 16 C-6.33 16 -6.66 16 -7 16 C-7.36551926 11.3396295 -7.62058305 8.04857135 -5.1875 3.9375 C-3 2 -3 2 0 2 C0 1.34 0 0.68 0 0 Z " fill="#454545" transform="translate(442,245)"/>
<path d="M0 0 C3.625 0.375 3.625 0.375 7 1 C6.34 2.65 5.68 4.3 5 6 C3.68 6 2.36 6 1 6 C1.99 7.485 1.99 7.485 3 9 C7.455 8.505 7.455 8.505 12 8 C12.33 7.01 12.66 6.02 13 5 C14 7 14 7 13.25 10.5625 C12.8375 11.696875 12.425 12.83125 12 14 C7.00347926 15.66550691 1.94227317 15.63421165 -3.0625 14 C-3.701875 13.67 -4.34125 13.34 -5 13 C-5.36812749 6.61912351 -5.36812749 6.61912351 -3.625 3.6875 C-2.4294144 2.44593034 -1.21879451 1.21879451 0 0 Z " fill="#626262" transform="translate(338,263)"/>
<path d="M0 0 C2.5625 2.1875 2.5625 2.1875 5 5 C5 8.83609132 3.60160709 11.24972965 1 14 C-2.69885125 14.76800576 -6.27570051 14.57983106 -10 14 C-12.6875 12 -12.6875 12 -14 10 C-13.67 9.01 -13.34 8.02 -13 7 C-9.50765756 6.90021879 -6.40562852 7.22157062 -3 8 C-3 6.35 -3 4.7 -3 3 C-2.01 2.67 -1.02 2.34 0 2 C0 1.34 0 0.68 0 0 Z " fill="#4C4C4C" transform="translate(470,256)"/>
<path d="M0 0 C0.99 0.495 0.99 0.495 2 1 C2 1.66 2 2.32 2 3 C-20.11 3 -42.22 3 -65 3 C-61.55911822 0.70607881 -60.33547716 0.75960415 -56.29101562 0.78881836 C-55.11970093 0.79219711 -53.94838623 0.79557587 -52.74157715 0.79905701 C-51.47591919 0.81251663 -50.21026123 0.82597626 -48.90625 0.83984375 C-46.92301728 0.84779003 -44.93978452 0.85573134 -42.9565506 0.86337376 C-40.17721793 0.87651141 -37.39798584 0.89871373 -34.61871338 0.92095947 C-29.75509333 0.95892914 -24.89142989 0.98733041 -20.02770996 1.00868225 C-17.43791576 1.02096744 -14.84814049 1.038598 -12.25842285 1.06199646 C-10.50145081 1.07179283 -10.50145081 1.07179283 -8.70898438 1.08178711 C-7.67656616 1.09004013 -6.64414795 1.09829315 -5.58044434 1.10679626 C-2.88175788 1.1143237 -2.88175788 1.1143237 0 0 Z " fill="#3D3D3D" transform="translate(237,233)"/>
<path d="M0 0 C2.5 0.125 2.5 0.125 3.5 1.125 C3.59862603 2.51674359 3.6307898 3.91336143 3.6328125 5.30859375 C3.63474609 6.57606445 3.63474609 6.57606445 3.63671875 7.86914062 C3.63285156 8.75794922 3.62898437 9.64675781 3.625 10.5625 C3.62886719 11.44744141 3.63273438 12.33238281 3.63671875 13.24414062 C3.63542969 14.09041016 3.63414062 14.93667969 3.6328125 15.80859375 C3.63168457 16.58775146 3.63055664 17.36690918 3.62939453 18.16967773 C3.5 20.125 3.5 20.125 2.5 22.125 C1.18 21.795 -0.14 21.465 -1.5 21.125 C-1.5 17.495 -1.5 13.865 -1.5 10.125 C-2.82 9.465 -4.14 8.805 -5.5 8.125 C-3.32949309 0.16647465 -3.32949309 0.16647465 0 0 Z " fill="#424242" transform="translate(511.5,160.875)"/>
<path d="M0 0 C-0.99 1.485 -0.99 1.485 -2 3 C-2.66 3 -3.32 3 -4 3 C-4 4.98 -4 6.96 -4 9 C-3.01 9 -2.02 9 -1 9 C-1 13.29 -1 17.58 -1 22 C-2.65 22.33 -4.3 22.66 -6 23 C-7.2263757 20.54724859 -7.11415314 18.9494219 -7.09765625 16.2109375 C-7.09443359 15.26992188 -7.09121094 14.32890625 -7.08789062 13.359375 C-7.07951172 12.37453125 -7.07113281 11.3896875 -7.0625 10.375 C-7.05798828 9.38242187 -7.05347656 8.38984375 -7.04882812 7.3671875 C-7.03702145 4.9113984 -7.020554 2.45572896 -7 0 C-4.3333581 -1.33332095 -2.83319697 -0.67102033 0 0 Z " fill="#5F5F5F" transform="translate(304,247)"/>
<path d="M0 0 C2.0625 0.4375 2.0625 0.4375 4 1 C3.34 2.32 2.68 3.64 2 5 C1.34 5 0.68 5 0 5 C1.9254644 7.2236068 1.9254644 7.2236068 5 8 C5 12.95 5 17.9 5 23 C3.35 23.33 1.7 23.66 0 24 C-2.66006095 21.33993905 -1.86445066 14.57511378 -2 11 C-1.60655738 1.60655738 -1.60655738 1.60655738 0 0 Z " fill="#666666" transform="translate(394,246)"/>
<path d="M0 0 C0 4.95 0 9.9 0 15 C-5.625 16.125 -5.625 16.125 -9 14 C-9 13.34 -9 12.68 -9 12 C-9.66 11.67 -10.32 11.34 -11 11 C-10.360625 10.566875 -9.72125 10.13375 -9.0625 9.6875 C-6.73253997 8.08760823 -6.73253997 8.08760823 -6 5 C-6.99 4.67 -7.98 4.34 -9 4 C-5.75598892 0.15524613 -5.43946513 0 0 0 Z " fill="#545454" transform="translate(389,254)"/>
<path d="M0 0 C1.65 0.33 3.3 0.66 5 1 C5 2.98 5 4.96 5 7 C4.34 6.67 3.68 6.34 3 6 C1.68 8.64 0.36 11.28 -1 14 C-5 12 -5 12 -6.25 9.625 C-7 7 -7 7 -7 3 C-5.02 3 -3.04 3 -1 3 C-0.67 2.01 -0.34 1.02 0 0 Z " fill="#4C4D4D" transform="translate(506,169)"/>
<path d="M0 0 C0.66 0.33 1.32 0.66 2 1 C4.09821215 0.60061233 4.09821215 0.60061233 6 0 C6.33 0.99 6.66 1.98 7 3 C3.76023912 4.73840827 0.79878367 6.05701129 -2.75 7.0625 C-6.05430339 7.73202159 -6.05430339 7.73202159 -8 10 C-8.99 10 -9.98 10 -11 10 C-11.31785906 6.50355037 -11.39644605 4.602598 -9.4375 1.625 C-6.14933906 -0.56710729 -3.87424565 -0.35872645 0 0 Z " fill="#646464" transform="translate(311,246)"/>
<path d="M0 0 C0.99 0.33 1.98 0.66 3 1 C3.33 1.99 3.66 2.98 4 4 C3.195625 4.28875 2.39125 4.5775 1.5625 4.875 C-1.1326468 5.73262568 -1.1326468 5.73262568 -2 8 C2.64586892 7.51515724 2.64586892 7.51515724 7 6 C6.67 6.99 6.34 7.98 6 9 C3.69 9.33 1.38 9.66 -1 10 C0.18424326 11.41577477 0.18424326 11.41577477 3.5625 11.0625 C5.2640625 11.0315625 5.2640625 11.0315625 7 11 C7 11.33 7 11.66 7 12 C6.01257813 12.19335938 5.02515625 12.38671875 4.0078125 12.5859375 C2.08582031 12.97652344 2.08582031 12.97652344 0.125 13.375 C-1.15117187 13.63023437 -2.42734375 13.88546875 -3.7421875 14.1484375 C-7.05924456 14.72237896 -7.05924456 14.72237896 -9 17 C-8.67 13.7 -8.34 10.4 -8 7 C-7.01 6.67 -6.02 6.34 -5 6 C-3.57142881 4.59894424 -3.57142881 4.59894424 -2.3125 2.9375 C-1.1678125 1.4834375 -1.1678125 1.4834375 0 0 Z " fill="#434343" transform="translate(444,247)"/>
<path d="M0 0 C0.99 0.33 1.98 0.66 3 1 C2.34 1 1.68 1 1 1 C0.67 2.32 0.34 3.64 0 5 C1.32 5.33 2.64 5.66 4 6 C4 6.66 4 7.32 4 8 C5.65 8 7.3 8 9 8 C9 8.66 9 9.32 9 10 C8.01 10.66 7.02 11.32 6 12 C6.99 12.66 7.98 13.32 9 14 C1.74418605 14.48372093 1.74418605 14.48372093 -1.5 12.375 C-3.44280469 9.29889257 -3.52224493 7.58110811 -3 4 C-1.5 1.625 -1.5 1.625 0 0 Z " fill="#5E5E5E" transform="translate(314,256)"/>
<path d="M0 0 C0.99 0.33 1.98 0.66 3 1 C3.19466332 2.79090253 3.38051213 4.58276505 3.5625 6.375 C3.66691406 7.37273437 3.77132813 8.37046875 3.87890625 9.3984375 C4 12 4 12 3 14 C0.4375 14.625 0.4375 14.625 -2 15 C-3.71535658 11.56928684 -3.4006478 7.75941181 -3 4 C-1.5 1.4375 -1.5 1.4375 0 0 Z " fill="#484848" transform="translate(419,252)"/>
<path d="M0 0 C1.41623216 -0.05447047 2.83308191 -0.09300508 4.25 -0.125 C5.03890625 -0.14820313 5.8278125 -0.17140625 6.640625 -0.1953125 C9.27973139 0.02315657 10.81366731 0.51019808 13 2 C14 5.375 14 5.375 14 9 C12.0625 11.4375 12.0625 11.4375 10 13 C10.33 10.69 10.66 8.38 11 6 C10.67 6.66 10.34 7.32 10 8 C5.25 7.125 5.25 7.125 3 6 C3.33 4.68 3.66 3.36 4 2 C2.68 1.34 1.36 0.68 0 0 Z " fill="#6D6D6D" transform="translate(340,263)"/>
<path d="M0 0 C3.625 0.375 3.625 0.375 7 1 C6.34 2.65 5.68 4.3 5 6 C3.68 6 2.36 6 1 6 C1.33 7.65 1.66 9.3 2 11 C1.01 11 0.02 11 -1 11 C-3.15028304 11.94978897 -3.15028304 11.94978897 -5 13 C-5.36812749 6.61912351 -5.36812749 6.61912351 -3.625 3.6875 C-2.4294144 2.44593034 -1.21879451 1.21879451 0 0 Z M-1 11 C1 12 1 12 1 12 Z " fill="#505050" transform="translate(338,263)"/>
<path d="M0 0 C-0.33 0.33 -0.66 0.66 -1 1 C-1.23701239 3.85877909 -1.42219182 6.69883297 -1.5625 9.5625 C-1.62727539 10.77196289 -1.62727539 10.77196289 -1.69335938 12.00585938 C-1.79975262 14.00368805 -1.90040888 16.0018207 -2 18 C-2.33 18 -2.66 18 -3 18 C-3 12.39 -3 6.78 -3 1 C-15.87 1 -28.74 1 -42 1 C-42 0.67 -42 0.34 -42 0 C-40.76080811 -0.03758423 -40.76080811 -0.03758423 -39.49658203 -0.07592773 C-36.38402127 -0.17198367 -33.27157829 -0.27115022 -30.15917969 -0.37231445 C-28.1686935 -0.43609984 -26.1780969 -0.49640927 -24.1875 -0.55664062 C-17.71848197 -0.76900738 -11.35735265 -1.0569433 -4.94873047 -1.99633789 C-3 -2 -3 -2 0 0 Z " fill="#8A8A8A" transform="translate(460,174)"/>
<path d="M0 0 C3.3 0 6.6 0 10 0 C10.33 1.98 10.66 3.96 11 6 C10.01 5.67 9.02 5.34 8 5 C6.845 5.515625 5.69 6.03125 4.5 6.5625 C3.345 7.036875 2.19 7.51125 1 8 C0.01 7.34 -0.98 6.68 -2 6 C-2 5.34 -2 4.68 -2 4 C-1.34 4 -0.68 4 0 4 C0 2.68 0 1.36 0 0 Z " fill="#464646" transform="translate(396,247)"/>
<path d="M0 0 C1.32 0.66 2.64 1.32 4 2 C4 8.27 4 14.54 4 21 C3.67 21 3.34 21 3 21 C2.67 19.35 2.34 17.7 2 16 C1.34 16.33 0.68 16.66 0 17 C-0.8744439 12.45289173 -1.22932033 10.0406431 1 6 C0.6814823 3.89179203 0.6814823 3.89179203 0 2 C0 1.34 0 0.68 0 0 Z " fill="#4A4A4A" transform="translate(409,248)"/>
<path d="M0 0 C0.99 0.33 1.98 0.66 3 1 C3 1.66 3 2.32 3 3 C4.65 3 6.3 3 8 3 C7.34 5.97 6.68 8.94 6 12 C4.68 12 3.36 12 2 12 C0.9375 10.1875 0.9375 10.1875 0 8 C0.33 7.01 0.66 6.02 1 5 C0.34 4.34 -0.32 3.68 -1 3 C-0.67 2.01 -0.34 1.02 0 0 Z " fill="#585858" transform="translate(344,248)"/>
<path d="M0 0 C0.99 0.33 1.98 0.66 3 1 C3 2.65 3 4.3 3 6 C1.41590006 5.88512252 -0.16728963 5.75765492 -1.75 5.625 C-2.63171875 5.55539063 -3.5134375 5.48578125 -4.421875 5.4140625 C-6.99066382 5.00149945 -8.75841015 4.28839043 -11 3 C-8.29910382 -1.05134427 -4.38745098 -0.4599747 0 0 Z " fill="#434343" transform="translate(470,246)"/>
<path d="M0 0 C6 6 6 6 6.0625 9.5625 C6.041875 10.696875 6.02125 11.83125 6 13 C2.7 13 -0.6 13 -4 13 C-4 12.34 -4 11.68 -4 11 C-2.35 10.34 -0.7 9.68 1 9 C1.20086443 5.28400809 1.1519437 4.22791555 -1 1 C-0.67 0.67 -0.34 0.34 0 0 Z " fill="#3D3D3D" transform="translate(466,223)"/>
<path d="M0 0 C1.2065625 0.0309375 1.2065625 0.0309375 2.4375 0.0625 C2.7675 0.7225 3.0975 1.3825 3.4375 2.0625 C2.1175 2.0625 0.7975 2.0625 -0.5625 2.0625 C-0.5625 7.6725 -0.5625 13.2825 -0.5625 19.0625 C-1.5525 19.0625 -2.5425 19.0625 -3.5625 19.0625 C-3.58933987 16.08327407 -3.60926037 13.10428705 -3.625 10.125 C-3.63337891 9.27486328 -3.64175781 8.42472656 -3.65039062 7.54882812 C-3.65361328 6.73994141 -3.65683594 5.93105469 -3.66015625 5.09765625 C-3.66539307 4.3487915 -3.67062988 3.59992676 -3.67602539 2.82836914 C-3.49028527 -0.06078847 -2.89596652 0.07063333 0 0 Z " fill="#464747" transform="translate(486.5625,162.9375)"/>
<path d="M0 0 C1.97909398 -0.02686553 3.95828971 -0.04633375 5.9375 -0.0625 C7.03964844 -0.07410156 8.14179688 -0.08570313 9.27734375 -0.09765625 C12 0 12 0 13 1 C13 2.65 13 4.3 13 6 C9.7 6 6.4 6 3 6 C3 4.35 3 2.7 3 1 C2.01 0.67 1.02 0.34 0 0 Z " fill="#535353" transform="translate(357,246)"/>
<path d="M0 0 C-0.33 1.32 -0.66 2.64 -1 4 C-2.98 4 -4.96 4 -7 4 C-7 3.34 -7 2.68 -7 2 C-7.66 2 -8.32 2 -9 2 C-9.33 2.66 -9.66 3.32 -10 4 C-11.65 4 -13.3 4 -15 4 C-14.67 2.68 -14.34 1.36 -14 0 C-9.75481738 -1.41506087 -4.03909918 -2.01954959 0 0 Z " fill="#454545" transform="translate(354,247)"/>
<path d="M0 0 C0.99 0.66 1.98 1.32 3 2 C3.1875 4.625 3.1875 4.625 3 7 C1.35 7.33 -0.3 7.66 -2 8 C-2.66 6.68 -3.32 5.36 -4 4 C-3.34 4 -2.68 4 -2 4 C-1.34 2.68 -0.68 1.36 0 0 Z M-9 8 C-6.69 8 -4.38 8 -2 8 C-2 9.65 -2 11.3 -2 13 C-3.65 13 -5.3 13 -7 13 C-7 12.01 -7 11.02 -7 10 C-7.66 9.34 -8.32 8.68 -9 8 Z " fill="#646464" transform="translate(385,247)"/>
<path d="M0 0 C2.64 0 5.28 0 8 0 C7.67 6.6 7.34 13.2 7 20 C6.67 20 6.34 20 6 20 C6 15.05 6 10.1 6 5 C4.35 5 2.7 5 1 5 C0.67 3.35 0.34 1.7 0 0 Z " fill="#656565" transform="translate(476,161)"/>
<path d="M0 0 C1.4540625 0.0309375 1.4540625 0.0309375 2.9375 0.0625 C3.625 2.375 3.625 2.375 3.9375 5.0625 C2.5 6.875 2.5 6.875 0.9375 8.0625 C-1 7.375 -1 7.375 -3.0625 6.0625 C-3.875 3.5 -3.875 3.5 -4.0625 1.0625 C-3.0625 0.0625 -3.0625 0.0625 0 0 Z " fill="#595959" transform="translate(440.0625,260.9375)"/>
<path d="M0 0 C0.33 0 0.66 0 1 0 C1.33 3.96 1.66 7.92 2 12 C2.66 11.34 3.32 10.68 4 10 C5.17571451 13.67410785 5.07366746 17.16929183 5 21 C2.5625 20.625 2.5625 20.625 0 20 C-1.17829199 17.64341603 -1.04414372 16.47426764 -0.87890625 13.8671875 C-0.83056641 13.06152344 -0.78222656 12.25585938 -0.73242188 11.42578125 C-0.67634766 10.58402344 -0.62027344 9.74226563 -0.5625 8.875 C-0.51029297 8.02550781 -0.45808594 7.17601562 -0.40429688 6.30078125 C-0.27448622 4.20020876 -0.1378826 2.10005809 0 0 Z " fill="#6A6A6A" transform="translate(356,249)"/>
<path d="M0 0 C3.35148894 3.42396924 4.45539059 5.77969277 4.45318604 10.59785461 C4.43254089 11.2938829 4.41189575 11.98991119 4.390625 12.70703125 C4.38496521 13.43242599 4.37930542 14.15782074 4.37347412 14.90519714 C4.35119099 17.20832008 4.30101487 19.50985224 4.25 21.8125 C4.22992434 23.37953472 4.21167543 24.94659399 4.1953125 26.51367188 C4.15135337 30.34305519 4.08238623 34.17125846 4 38 C3.67 38 3.34 38 3 38 C2.67 27.44 2.34 16.88 2 6 C1.01 5.67 0.02 5.34 -1 5 C-0.67 3.35 -0.34 1.7 0 0 Z " fill="#303030" transform="translate(468,162)"/>
<path d="M0 0 C0.33 0 0.66 0 1 0 C1 2.31 1 4.62 1 7 C1.71027344 6.98839844 2.42054688 6.97679687 3.15234375 6.96484375 C4.07144531 6.95582031 4.99054688 6.94679687 5.9375 6.9375 C6.85402344 6.92589844 7.77054687 6.91429687 8.71484375 6.90234375 C11 7 11 7 12 8 C12.04063832 9.66617115 12.042721 11.33388095 12 13 C8.32589215 14.17571451 4.83070817 14.07366746 1 14 C1 13.67 1 13.34 1 13 C2.134375 12.690625 3.26875 12.38125 4.4375 12.0625 C7.78775099 11.37075469 7.78775099 11.37075469 9 10 C4.545 9.01 4.545 9.01 0 8 C0 5.36 0 2.72 0 0 Z " fill="#AAAAAA" transform="translate(282,244)"/>
<path d="M0 0 C0.33 0 0.66 0 1 0 C1.33 2.31 1.66 4.62 2 7 C5.63 7 9.26 7 13 7 C13 7.99 13 8.98 13 10 C8.38 10 3.76 10 -1 10 C-1 3 -1 3 0 0 Z " fill="#353535" transform="translate(90,226)"/>
<path d="M0 0 C0.99 0.66 1.98 1.32 3 2 C2.67 5.96 2.34 9.92 2 14 C1.01 14 0.02 14 -1 14 C-2.29456734 11.41086532 -1.93282201 9.86191275 -1.625 7 C-1.53476562 6.113125 -1.44453125 5.22625 -1.3515625 4.3125 C-1 2 -1 2 0 0 Z " fill="#4F4F51" transform="translate(495,168)"/>
<path d="M0 0 C2.5 2.3125 2.5 2.3125 5 5 C5 5.99 5 6.98 5 8 C2.69 7.67 0.38 7.34 -2 7 C-2.33 5.68 -2.66 4.36 -3 3 C-2.01 2.67 -1.02 2.34 0 2 C0 1.34 0 0.68 0 0 Z " fill="#5A5A5A" transform="translate(470,256)"/>
<path d="M0 0 C0.99 0.33 1.98 0.66 3 1 C3.33 1.99 3.66 2.98 4 4 C3.195625 4.28875 2.39125 4.5775 1.5625 4.875 C-1.1326468 5.73262568 -1.1326468 5.73262568 -2 8 C2.64586892 7.51515724 2.64586892 7.51515724 7 6 C6.67 6.99 6.34 7.98 6 9 C3.03 9 0.06 9 -3 9 C-3 8.01 -3 7.02 -3 6 C-3.66 5.67 -4.32 5.34 -5 5 C-3.35 3.35 -1.7 1.7 0 0 Z " fill="#3C3C3C" transform="translate(444,247)"/>
<path d="M0 0 C1 3 1 3 -0.328125 5.6640625 C-1.27945312 7.12972656 -1.27945312 7.12972656 -2.25 8.625 C-2.87390625 9.60726562 -3.4978125 10.58953125 -4.140625 11.6015625 C-6 14 -6 14 -9 15 C-8.67 13.35 -8.34 11.7 -8 10 C-7.34 10 -6.68 10 -6 10 C-5.34 8.35 -4.68 6.7 -4 5 C-3.34 5 -2.68 5 -2 5 C-1.34 3.35 -0.68 1.7 0 0 Z " fill="#5D5D5D" transform="translate(348,168)"/>
<path d="M0 0 C0.99 0.33 1.98 0.66 3 1 C2.34 1 1.68 1 1 1 C0.67 2.32 0.34 3.64 0 5 C1.32 5.33 2.64 5.66 4 6 C3.34 6.66 2.68 7.32 2 8 C1.01 8 0.02 8 -1 8 C-1.33 8.99 -1.66 9.98 -2 11 C-3 10 -3 10 -3.25 7.1875 C-2.97826344 3.72285889 -2.31309135 2.50584896 0 0 Z " fill="#696969" transform="translate(314,256)"/>
<path d="M0 0 C-0.33 0.99 -0.66 1.98 -1 3 C-1.22560676 5.39254576 -1.40848595 7.78928123 -1.5625 10.1875 C-1.64628906 11.45980469 -1.73007812 12.73210937 -1.81640625 14.04296875 C-1.87699219 15.01878906 -1.93757813 15.99460937 -2 17 C-2.66 17 -3.32 17 -4 17 C-3.979375 15.96875 -3.95875 14.9375 -3.9375 13.875 C-3.87258061 10.0880019 -3.87258061 10.0880019 -4.6875 6.8125 C-5 4 -5 4 -3.6875 1.625 C-2 0 -2 0 0 0 Z " fill="#3D3D3D" transform="translate(364,252)"/>
<path d="M0 0 C1.98 0 3.96 0 6 0 C5.814375 0.886875 5.62875 1.77375 5.4375 2.6875 C5.01957516 5.85178811 5.19222258 7.94839642 6 11 C3.17621961 9.96461386 2.1756855 9.33380245 0.75 6.625 C0 4 0 4 0 0 Z " fill="#666767" transform="translate(499,172)"/>
<path d="M0 0 C2.625 0.9375 2.625 0.9375 5 2 C5 4 5 4 3.5 5.625 C3.005 6.07875 2.51 6.5325 2 7 C-0.475 6.01 -0.475 6.01 -3 5 C-2.625 3.0625 -2.625 3.0625 -2 1 C-1.34 0.67 -0.68 0.34 0 0 Z " fill="#4A4A4A" transform="translate(465,254)"/>
<path d="M0 0 C2.475 0.99 2.475 0.99 5 2 C5 2.66 5 3.32 5 4 C5.66 4 6.32 4 7 4 C7 4.66 7 5.32 7 6 C4.03 6 1.06 6 -2 6 C-1.33333333 4 -0.66666667 2 0 0 Z " fill="#626262" transform="translate(375,264)"/>
<path d="M0 0 C0.33 0 0.66 0 1 0 C1 5.28 1 10.56 1 16 C1.99 15.67 2.98 15.34 4 15 C4.66 15.33 5.32 15.66 6 16 C5.67 16.99 5.34 17.98 5 19 C3.68 19 2.36 19 1 19 C-0.65497356 15.69005287 -0.10084335 12.00877 -0.0625 8.375 C-0.05798828 7.57320313 -0.05347656 6.77140625 -0.04882812 5.9453125 C-0.03703168 3.96350994 -0.01909605 1.98174567 0 0 Z " fill="#7D7D7D" transform="translate(297,251)"/>
<path d="M0 0 C0 1.65 0 3.3 0 5 C-2.97 4.505 -2.97 4.505 -6 4 C-6 3.34 -6 2.68 -6 2 C-7.32 2.33 -8.64 2.66 -10 3 C-10 2.34 -10 1.68 -10 1 C-3.375 -1.125 -3.375 -1.125 0 0 Z " fill="#545454" transform="translate(455,264)"/>
<path d="M0 0 C0.66 0 1.32 0 2 0 C2 4.95 2 9.9 2 15 C1.01 14.67 0.02 14.34 -1 14 C-0.67 9.38 -0.34 4.76 0 0 Z " fill="#3C3C3C" transform="translate(182,165)"/>
<path d="M0 0 C2.6855594 2.6855594 3.06049974 5.37621328 4 9 C2 11 2 11 -1 13 C-0.67 8.71 -0.34 4.42 0 0 Z " fill="#353535" transform="translate(90,175)"/>
<path d="M0 0 C2.3828125 0.0234375 2.3828125 0.0234375 5.125 0.375 C6.03507812 0.48585938 6.94515625 0.59671875 7.8828125 0.7109375 C8.93082031 0.85402344 8.93082031 0.85402344 10 1 C10 1.99 10 2.98 10 4 C1.42857143 4.28571429 1.42857143 4.28571429 -2 2 C-1.34 1.34 -0.68 0.68 0 0 Z " fill="#606060" transform="translate(443,256)"/>
<path d="M0 0 C0.66 0.33 1.32 0.66 2 1 C2 3.97 2 6.94 2 10 C1.01 10 0.02 10 -1 10 C-2.15837626 5.94568308 -1.83691257 3.78187881 0 0 Z " fill="#4F4F4F" transform="translate(454,250)"/>
<path d="M0 0 C0.66 0.33 1.32 0.66 2 1 C1.34 1.66 0.68 2.32 0 3 C0.3185177 5.10820797 0.3185177 5.10820797 1 7 C0.01 7.495 0.01 7.495 -1 8 C-1.66 7.67 -2.32 7.34 -3 7 C-3 9.31 -3 11.62 -3 14 C-3.33 14 -3.66 14 -4 14 C-4.63019694 5.96498906 -4.63019694 5.96498906 -2 1.9375 C-1.34 1.298125 -0.68 0.65875 0 0 Z " fill="#787878" transform="translate(439,247)"/>
<path d="M0 0 C0.66 0.33 1.32 0.66 2 1 C2 3.97 2 6.94 2 10 C0.68 9.34 -0.64 8.68 -2 8 C-1.34 5.36 -0.68 2.72 0 0 Z " fill="#545454" transform="translate(301,257)"/>
<path d="M0 0 C0.66 0.33 1.32 0.66 2 1 C2 1.66 2 2.32 2 3 C2.66 3.33 3.32 3.66 4 4 C2.6875 5.5 2.6875 5.5 1 7 C0.01 7 -0.98 7 -2 7 C-2 5.02 -2 3.04 -2 1 C-1.34 0.67 -0.68 0.34 0 0 Z " fill="#515151" transform="translate(302,249)"/>
<path d="M0 0 C2.64 0 5.28 0 8 0 C8 0.33 8 0.66 8 1 C6.02 1 4.04 1 2 1 C2 2.65 2 4.3 2 6 C0.02 6.33 -1.96 6.66 -4 7 C-3 4 -3 4 0 2 C0 1.34 0 0.68 0 0 Z " fill="#6B6B6B" transform="translate(317,246)"/>
<path d="M0 0 C1.32 0 2.64 0 4 0 C4 2.97 4 5.94 4 9 C3.01 9.495 3.01 9.495 2 10 C2 8.02 2 6.04 2 4 C1.34 4 0.68 4 0 4 C0 2.68 0 1.36 0 0 Z " fill="#404040" transform="translate(355,181)"/>
<path d="M0 0 C3.96 0 7.92 0 12 0 C12 0.33 12 0.66 12 1 C10.35 1.33 8.7 1.66 7 2 C6.67 2.99 6.34 3.98 6 5 C5.01 5.33 4.02 5.66 3 6 C3 4.35 3 2.7 3 1 C2.01 0.67 1.02 0.34 0 0 Z " fill="#656565" transform="translate(357,246)"/>
<path d="M0 0 C0.99 0.33 1.98 0.66 3 1 C2.67 2.32 2.34 3.64 2 5 C0.02 5 -1.96 5 -4 5 C-4.33 4.01 -4.66 3.02 -5 2 C-3.35 2 -1.7 2 0 2 C0 1.34 0 0.68 0 0 Z " fill="#4D4D4D" transform="translate(351,246)"/>
<path d="M0 0 C2.97 0.495 2.97 0.495 6 1 C5.52433594 1.82757813 5.52433594 1.82757813 5.0390625 2.671875 C3.87290025 5.28477989 3.59954289 7.40579002 3.375 10.25 C3.30023438 11.14203125 3.22546875 12.0340625 3.1484375 12.953125 C3.09945313 13.62859375 3.05046875 14.3040625 3 15 C2.67 15 2.34 15 2 15 C2 10.38 2 5.76 2 1 C1.34 0.67 0.68 0.34 0 0 Z " fill="#3B3B3B" transform="translate(491,165)"/>
<path d="M0 0 C2 2 2 2 2.125 4.625 C2.08375 5.40875 2.0425 6.1925 2 7 C1.01 6.67 0.02 6.34 -1 6 C-1 5.34 -1 4.68 -1 4 C-1.99 3.67 -2.98 3.34 -4 3 C-2.68 2.01 -1.36 1.02 0 0 Z " fill="#575757" transform="translate(432,261)"/>
<path d="M0 0 C1.5 1.3125 1.5 1.3125 3 3 C3 3.99 3 4.98 3 6 C1.02 6 -0.96 6 -3 6 C-2.67 4.68 -2.34 3.36 -2 2 C-1.34 2 -0.68 2 0 2 C0 1.34 0 0.68 0 0 Z " fill="#4A4A4A" transform="translate(317,255)"/>
<path d="M0 0 C2.0625 0.4375 2.0625 0.4375 4 1 C3.67 2.98 3.34 4.96 3 7 C1.68 6.67 0.36 6.34 -1 6 C-1.042721 4.33388095 -1.04063832 2.66617115 -1 1 C-0.67 0.67 -0.34 0.34 0 0 Z " fill="#686868" transform="translate(372,247)"/>
<path d="M0 0 C0.66 0.99 1.32 1.98 2 3 C0.35 3.66 -1.3 4.32 -3 5 C-3.66 4.34 -4.32 3.68 -5 3 C-6.32 3 -7.64 3 -9 3 C-9 2.34 -9 1.68 -9 1 C-4.545 0.505 -4.545 0.505 0 0 Z " fill="#484848" transform="translate(316,246)"/>
<path d="M0 0 C6 6 6 6 6.0625 9.5625 C6.041875 10.696875 6.02125 11.83125 6 13 C5.01 12.67 4.02 12.34 3 12 C3.66 12 4.32 12 5 12 C3.74194623 7.49197399 2.09592835 4.5087188 -1 1 C-0.67 0.67 -0.34 0.34 0 0 Z " fill="#2E2E2E" transform="translate(466,223)"/>
<path d="M0 0 C1 2 1 2 0.0625 5.125 C-0.288125 6.07375 -0.63875 7.0225 -1 8 C-2.32 7.67 -3.64 7.34 -5 7 C-4.67 5.68 -4.34 4.36 -4 3 C-3.01 3 -2.02 3 -1 3 C-0.67 2.01 -0.34 1.02 0 0 Z " fill="#4B4B4B" transform="translate(351,268)"/>
<path d="M0 0 C1.65 0 3.3 0 5 0 C5.33 0.66 5.66 1.32 6 2 C5.34 2.66 4.68 3.32 4 4 C3.67 4.66 3.34 5.32 3 6 C2.34 6 1.68 6 1 6 C-0.0625 4.125 -0.0625 4.125 -1 2 C-0.67 1.34 -0.34 0.68 0 0 Z " fill="#666666" transform="translate(457,263)"/>
<path d="M0 0 C1.65 0.33 3.3 0.66 5 1 C0.25 5.875 0.25 5.875 -2 7 C-2.66 6.34 -3.32 5.68 -4 5 C-2.68 3.35 -1.36 1.7 0 0 Z " fill="#505050" transform="translate(442,245)"/>
<path d="M0 0 C1.65 0 3.3 0 5 0 C5.33 1.32 5.66 2.64 6 4 C4.35 4.33 2.7 4.66 1 5 C0.67 3.35 0.34 1.7 0 0 Z " fill="#454545" transform="translate(426,265)"/>
<path d="M0 0 C0.33 0.66 0.66 1.32 1 2 C3.02463255 2.65213292 3.02463255 2.65213292 5 3 C4.67 3.66 4.34 4.32 4 5 C3.34 5 2.68 5 2 5 C1.67 7.64 1.34 10.28 1 13 C0.67 13 0.34 13 0 13 C0 8.71 0 4.42 0 0 Z " fill="#767676" transform="translate(89,170)"/>
<path d="M0 0 C2.0625 0.4375 2.0625 0.4375 4 1 C4 3.64 4 6.28 4 9 C3.67 9 3.34 9 3 9 C2.67 7.35 2.34 5.7 2 4 C1.01 4.495 1.01 4.495 0 5 C-0.5625 3.0625 -0.5625 3.0625 -1 1 C-0.67 0.67 -0.34 0.34 0 0 Z " fill="#505050" transform="translate(409,260)"/>
<path d="M0 0 C0.33 0 0.66 0 1 0 C1.22786458 2.01822917 1.45572917 4.03645833 1.68359375 6.0546875 C1.91292961 8.07404316 1.91292961 8.07404316 3 10 C1.68 10 0.36 10 -1 10 C-1.125 3.375 -1.125 3.375 0 0 Z " fill="#2F2F2F" transform="translate(90,226)"/>
<path d="M0 0 C1.7074998 1.28062485 3.37373596 2.61767557 5 4 C5 4.66 5 5.32 5 6 C4.01 6.33 3.02 6.66 2 7 C1.34 6.67 0.68 6.34 0 6 C0 4.02 0 2.04 0 0 Z " fill="#4F4F4F" transform="translate(334,253)"/>
<path d="M0 0 C1.98 0.99 1.98 0.99 4 2 C4 3.65 4 5.3 4 7 C2.68 6.34 1.36 5.68 0 5 C0 3.35 0 1.7 0 0 Z " fill="#414141" transform="translate(409,248)"/>
<path d="M0 0 C0.66 1.32 1.32 2.64 2 4 C1.01 4.99 0.02 5.98 -1 7 C-1.66 6.67 -2.32 6.34 -3 6 C-1.125 1.125 -1.125 1.125 0 0 Z " fill="#373737" transform="translate(509,163)"/>
<path d="M0 0 C0.33 0 0.66 0 1 0 C1 2.31 1 4.62 1 7 C0.01 7 -0.98 7 -2 7 C-2.125 4.625 -2.125 4.625 -2 2 C-1.34 1.34 -0.68 0.68 0 0 Z " fill="#4E4E4E" transform="translate(397,261)"/>
<path d="M0 0 C1.33333333 0 2.66666667 0 4 0 C4 1.98 4 3.96 4 6 C2.68 5.67 1.36 5.34 0 5 C0 3.35 0 1.7 0 0 Z " fill="#484848" transform="translate(408,263)"/>
<path d="M0 0 C1.2065625 0.0309375 1.2065625 0.0309375 2.4375 0.0625 C1.4475 2.0425 0.4575 4.0225 -0.5625 6.0625 C-1.2225 5.4025 -1.8825 4.7425 -2.5625 4.0625 C-2.2325 3.4025 -1.9025 2.7425 -1.5625 2.0625 C-2.2225 1.7325 -2.8825 1.4025 -3.5625 1.0625 C-2.5625 0.0625 -2.5625 0.0625 0 0 Z " fill="#474747" transform="translate(377.5625,255.9375)"/>
<path d="M0 0 C-1.98 0.99 -1.98 0.99 -4 2 C-3.67 2.66 -3.34 3.32 -3 4 C-4.98 4 -6.96 4 -9 4 C-8.67 3.01 -8.34 2.02 -8 1 C-5.29120665 -0.35439668 -2.99066732 -0.06501451 0 0 Z " fill="#5B5B5B" transform="translate(468,246)"/>
<path d="M0 0 C1.258125 -0.04125 2.51625 -0.0825 3.8125 -0.125 C4.52019531 -0.14820313 5.22789062 -0.17140625 5.95703125 -0.1953125 C8 0 8 0 11 2 C9.35 2.66 7.7 3.32 6 4 C6 3.34 6 2.68 6 2 C3.03 1.505 3.03 1.505 0 1 C0 0.67 0 0.34 0 0 Z " fill="#6F6F6F" transform="translate(422,246)"/>
<path d="M0 0 C0.99 0.33 1.98 0.66 3 1 C2.67 1.66 2.34 2.32 2 3 C1.34 3 0.68 3 0 3 C-0.66 4.32 -1.32 5.64 -2 7 C-2.66 7 -3.32 7 -4 7 C-2.79618552 4.50638429 -1.54571278 2.31856917 0 0 Z " fill="#363636" transform="translate(355,159)"/>
<path d="M0 0 C1.3921875 0.2784375 1.3921875 0.2784375 2.8125 0.5625 C6.01343771 1.24123881 6.01343771 1.24123881 9 0 C8.67 0.99 8.34 1.98 8 3 C2.25 3.125 2.25 3.125 0 2 C0 1.34 0 0.68 0 0 Z " fill="#4E4E4E" transform="translate(281,254)"/>
<path d="M0 0 C2.64 0.33 5.28 0.66 8 1 C5.4345406 3.5654594 3.52313332 3.54046087 0 4 C0 2.66666667 0 1.33333333 0 0 Z " fill="#575757" transform="translate(284,252)"/>
<path d="M0 0 C0.66 0.66 1.32 1.32 2 2 C1.01 3.485 1.01 3.485 0 5 C-0.39387788 7.32387947 -0.73486085 9.65793749 -1 12 C-1.33 12 -1.66 12 -2 12 C-2.28571429 3.42857143 -2.28571429 3.42857143 0 0 Z " fill="#1F1F21" transform="translate(499,168)"/>
<path d="" fill="#FFFFFF" transform="translate(0,0)"/>
<path d="" fill="#FFFFFF" transform="translate(0,0)"/>
</svg>
